
		<svg xmlns="http://www.w3.org/2000/svg" xmlns:xlink="http://www.w3.org/1999/xlink" version="1.1" width="3230.769230769231" height="1338.4615384615383">
			
			<g transform="scale(11.538461538461538) translate(10, 10)">
				<defs id="SvgjsDefs1648"/><g id="SvgjsG1649" featureKey="root" fill="#fff"/><g id="SvgjsG1650" featureKey="symbol1" fill="#fff" transform="matrix(0.7739786394636786,0,0,0.7739786394636786,0.48063519290627,15.51604833099088)"><circle cx="35.5" cy="35.5" r="8"/><circle cx="35.5" cy="53.9" r="8"/><circle cx="53.8" cy="53.9" r="8"/><circle cx="53.8" cy="35.5" r="8"/><ellipse transform="matrix(0.1632 -0.9866 0.9866 0.1632 -18.2703 50.6831)" cx="20.7" cy="36.1" rx="7.4" ry="5.1"/><ellipse transform="matrix(0.987 -0.1605 0.1605 0.987 -2.801 6.0855)" cx="36.3" cy="20.4" rx="7.4" ry="5.1"/><path d="M19.2,19.2c2.5-2.5,5.8-3.2,7.5-1.6c1.7,1.6,1,5-1.5,7.5c-2.5,2.5-5.8,3.2-7.5,1.6C16,25,16.7,21.7,19.2,19.2z"/><ellipse transform="matrix(0.1631 -0.9866 0.9866 0.1631 -37.4602 93.171)" cx="36.2" cy="68.7" rx="5.1" ry="7.4"/><path d="M15.4,54c-0.7-4,1.1-7.7,3.9-8.1c2.8-0.5,5.6,2.4,6.2,6.5c0.7,4-1.1,7.7-3.9,8.1C18.9,60.9,16.1,58,15.4,54z"/><ellipse transform="matrix(0.7029 -0.7113 0.7113 0.7029 -41.2317 35.8011)" cx="22.2" cy="67.3" rx="4.2" ry="6.4"/><path d="M73.6,54.1c-0.7,4-3.5,6.9-6.2,6.4c-2.8-0.5-4.5-4.1-3.8-8.1c0.7-4,3.5-6.9,6.2-6.4C72.6,46.5,74.3,50.1,73.6,54.1z"/><path d="M53.9,74.1c-4,0.7-7.7-1.1-8.1-3.9c-0.5-2.8,2.4-5.6,6.5-6.2c4-0.7,7.7,1.1,8.1,3.9C60.8,70.6,57.9,73.4,53.9,74.1z"/><path d="M70.2,70.2c-2.5,2.5-5.8,3.2-7.5,1.6c-1.7-1.6-1-5,1.5-7.5c2.5-2.5,5.8-3.2,7.5-1.6C73.3,64.4,72.6,67.7,70.2,70.2z"/><path d="M54,15.7c4,0.7,6.9,3.5,6.5,6.2s-4.1,4.5-8.1,3.8c-4-0.7-6.9-3.5-6.5-6.2C46.3,16.8,50,15,54,15.7z"/><ellipse transform="matrix(0.987 -0.1605 0.1605 0.987 -4.9272 11.5247)" cx="68.9" cy="36.3" rx="5.1" ry="7.4"/><ellipse transform="matrix(0.7027 -0.7115 0.7115 0.7027 4.1823 54.3153)" cx="67.1" cy="22.2" rx="4.2" ry="6.4"/><ellipse transform="matrix(0.7028 -0.7114 0.7114 0.7028 -5.9535 14.5122)" cx="14.4" cy="14.4" rx="4.7" ry="2.2"/><path d="M6.6,36.6C7.1,33,9,30.2,11,30.5c1.9,0.3,3.1,3.4,2.6,7.1c-0.5,3.6-2.5,6.4-4.4,6.1C7.2,43.4,6.1,40.2,6.6,36.6z"/><path d="M36.6,6.6c3.6-0.7,6.8,0.3,7.2,2.2c0.4,1.9-2.3,4-5.9,4.7c-3.6,0.7-6.8-0.3-7.2-2.2C30.3,9.3,33,7.2,36.6,6.6z"/><ellipse transform="matrix(0.8586 -0.5127 0.5127 0.8586 -2.6835 14.0596)" cx="24.1" cy="11.9" rx="5.6" ry="3.1"/><path d="M9.1,22.8c1.5-2.7,3.9-4.1,5.4-3.3c1.5,0.8,1.5,3.6,0,6.3c-1.5,2.7-3.9,4.1-5.4,3.3C7.6,28.3,7.6,25.5,9.1,22.8z"/><ellipse transform="matrix(0.7031 -0.7111 0.7111 0.7031 -49.0542 32.5572)" cx="14.5" cy="75" rx="2.2" ry="4.7"/><path d="M36.7,82.8c-3.6-0.5-6.4-2.5-6.1-4.4c0.3-1.9,3.4-3.1,7.1-2.6c3.6,0.5,6.4,2.5,6.1,4.4C43.5,82.2,40.3,83.3,36.7,82.8z"/><ellipse transform="matrix(0.9828 -0.1845 0.1845 0.9828 -9.4536 2.7551)" cx="10.1" cy="52.2" rx="3.5" ry="6.6"/><ellipse transform="matrix(0.8587 -0.5125 0.5125 0.8587 -31.7563 15.3562)" cx="12" cy="65.3" rx="3.1" ry="5.6"/><ellipse transform="matrix(0.4857 -0.8741 0.8741 0.4857 -55.3115 61.2268)" cx="24.4" cy="77.6" rx="3.1" ry="5.5"/><path d="M76.5,76.5c-1.8,1.8-4,2.7-4.8,1.8c-0.8-0.8-0.1-3,1.8-4.9c1.8-1.8,4-2.7,4.8-1.8C79.1,72.5,78.3,74.7,76.5,76.5z"/><ellipse transform="matrix(0.1367 -0.9906 0.9906 0.1367 16.6045 123.7115)" cx="79.3" cy="52.3" rx="6.6" ry="3.5"/><ellipse transform="matrix(0.9828 -0.1846 0.1846 0.9828 -13.7637 10.9815)" cx="52.1" cy="79.4" rx="6.6" ry="3.5"/><path d="M66.8,80.1c-2.7,1.6-5.5,1.7-6.4,0.3c-0.9-1.5,0.6-3.9,3.3-5.5c2.7-1.6,5.5-1.7,6.4-0.3C70.9,76.1,69.4,78.5,66.8,80.1z"/><ellipse transform="matrix(0.4855 -0.8742 0.8742 0.4855 -17.0312 101.2805)" cx="77.5" cy="65.1" rx="5.5" ry="3.1"/><ellipse transform="matrix(0.7027 -0.7115 0.7115 0.7027 12.0223 57.5493)" cx="74.9" cy="14.4" rx="2.2" ry="4.7"/><path d="M52.7,6.6C56.3,7.1,59,9,58.8,11c-0.3,1.9-3.4,3.1-7.1,2.6c-3.6-0.5-6.4-2.5-6.1-4.4C45.9,7.2,49,6.1,52.7,6.6z"/><ellipse transform="matrix(0.9828 -0.1845 0.1845 0.9828 -5.5086 15.2595)" cx="79.2" cy="37.2" rx="3.5" ry="6.6"/><ellipse transform="matrix(0.8585 -0.5128 0.5128 0.8585 -1.4337 43.087)" cx="77.4" cy="24.1" rx="3.1" ry="5.6"/><ellipse transform="matrix(0.4857 -0.8741 0.8741 0.4857 23.0983 62.8402)" cx="65" cy="11.8" rx="3.1" ry="5.5"/><ellipse transform="matrix(0.1367 -0.9906 0.9906 0.1367 -35.6607 35.6253)" cx="2.6" cy="38.3" rx="5.7" ry="2.5"/><ellipse transform="matrix(0.9937 -0.1124 0.1124 0.9937 -4.640550e-02 4.3352)" cx="38.4" cy="2.6" rx="5.7" ry="2.5"/><ellipse transform="matrix(0.1371 -0.9906 0.9906 0.1371 -52.889 112.8866)" cx="38.3" cy="86.8" rx="2.5" ry="5.7"/><ellipse transform="matrix(0.9936 -0.1126 0.1126 0.9936 -5.7243 0.6232)" cx="2.7" cy="51" rx="2.5" ry="5.7"/><path d="M89.2,51.5c-0.4,3.1-1.9,5.5-3.3,5.3c-1.4-0.2-2.1-2.9-1.7-6c0.4-3.1,1.9-5.5,3.3-5.3C88.9,45.7,89.6,48.4,89.2,51.5z"/><path d="M51.2,89.3c-3.1,0.4-5.8-0.5-5.9-1.9c-0.2-1.4,2.2-2.8,5.4-3.1c3.1-0.4,5.8,0.5,5.9,1.9C56.7,87.6,54.3,89,51.2,89.3z"/><ellipse transform="matrix(0.1365 -0.9906 0.9906 0.1365 41.4377 52.7535)" cx="51" cy="2.6" rx="2.5" ry="5.7"/><ellipse transform="matrix(0.9936 -0.1126 0.1126 0.9936 -3.774 10.0044)" cx="86.7" cy="38.4" rx="2.5" ry="5.7"/></g><g id="SvgjsG1651" featureKey="text1" fill="#fff" transform="matrix(4.161414295399556,0,0,4.161414295399556,102.53020004419707,-33.44765976851657)"><path d="M7.6441 20.5934 c0.74576 0 1.2375 -0.40695 1.2375 -1.2205 c0 -1.9831 -1.5593 -3.8814 -4.0678 -3.8814 c-2.3729 0 -4.2203 1.8475 -4.2203 4.3051 c0 2.5763 1.949 4.288 4.3219 4.288 c1.5085 0 2.7119 -0.52542 3.4068 -1.5085 c0.11864 -0.15254 0.084746 -0.27119 -0.050847 -0.44068 l-0.38983 -0.5422 c-0.16949 -0.22034 -0.32203 -0.18644 -0.52542 -0.084746 c-0.45763 0.25424 -1.339 0.52542 -2.1695 0.52542 c-1.0169 0 -1.9322 -0.49153 -2.1356 -1.4405 l4.5932 0 z M3.0678 18.796599999999998 c0.084746 -0.54237 0.72881 -1.1695 1.6949 -1.1695 c0.98305 0 1.5932 0.61017 1.678 1.1695 l-3.3729 0 z M17.711725423728815 10.441 c0.49153 0 0.83051 0.32186 0.83051 0.77949 l0 12.458 c0 0.16949 -0.15254 0.32186 -0.32203 0.32186 l-0.88136 0 c-0.32203 0 -0.79661 -0.20322 -1.0169 -0.5422 c-0.54237 0.37288 -1.2542 0.66085 -2.1356 0.66085 c-2.3898 0 -4.0169 -1.932 -4.0169 -4.4236 c0 -2.5254 1.9492 -4.1525 3.9153 -4.1525 c0.89831 0 1.5763 0.25441 2.1186 0.57644 l0 -4.0339 c0 -0.61017 -0.11864 -0.89831 -0.18644 -1.2203 c-0.050847 -0.22034 0.033898 -0.42373 0.20339 -0.42373 l1.4915 0 z M12.474425423728814 19.6949 c0 1.4576 0.94932 2.2712 2.0847 2.2712 c0.66102 0 1.2032 -0.18644 1.6441 -0.40678 l0 -3.3051 c-0.54237 -0.32203 -1.1356 -0.54237 -1.7797 -0.54237 c-0.83051 0 -1.9492 0.52542 -1.9492 1.9831 z M22.000022033898304 12.966 c-0.69492 0 -1.2542 -0.55932 -1.2542 -1.2542 s0.55932 -1.2712 1.2542 -1.2712 c0.69475 0 1.271 0.57627 1.271 1.2712 s-0.57627 1.2542 -1.271 1.2542 z M22.864422033898304 15.6103 l-1.6951 0 c-0.18644 0 -0.32203 0.15254 -0.32203 0.32203 l0 7.2032 c0 0.49153 0.30508 0.86441 0.83051 0.86441 l1.2034 0 c0.16949 0 0.30508 -0.13543 0.30508 -0.33881 l0 -7.7288 c0 -0.16949 -0.15254 -0.32203 -0.32186 -0.32203 z M26.08452711864407 10.949 l7.3392 -0.00033103 c0.22034 0 0.33898 0.11864 0.33898 0.32203 l0 1.678 c0 0.25424 -0.067797 0.42373 -0.23729 0.61017 l-2.5932 2.7797 c0.55932 0.084746 1.1186 0.3222 1.5931 0.66102 c1.0169 0.69492 1.678 1.9492 1.678 3.2373 c0 2.1864 -2.1864 3.932 -4.3051 3.932 c-2.0341 0 -3.3392 -0.84712 -4.5764 -2.3217 c-0.13559 -0.16949 -0.13559 -0.30508 0.016949 -0.45763 l1.2034 -1.1186 c0.15254 -0.16949 0.27119 -0.15254 0.45763 0.033898 c0.59322 0.66102 1.5932 1.5254 2.7458 1.5254 c1.2373 0 1.9661 -1 1.9661 -1.8814 c0 -0.84746 -0.64407 -1.6102 -1.5763 -1.6102 c-0.47458 0 -0.88119 0.30508 -1.1693 0.32203 c-0.10186 0 -0.18644 -0.050847 -0.27119 -0.15254 l-0.9322 -1.2542 c-0.11864 -0.15254 -0.13559 -0.30508 0.016949 -0.45746 l3.1864 -3.5085 l-4.8814 0 c-0.16949 0 -0.3561 -0.15254 -0.3561 -0.32203 l0 -1.678 c0 -0.18644 0.16966 -0.33898 0.3561 -0.33898 z"/></g><g id="SvgjsG1652" featureKey="text3" fill="#fff" transform="matrix(0.9044477959589049,0,0,0.9044477959589049,88.55288328926488,77.40540483425833)"><path d="M4.4 8.46 l0 2.42 c0 0.34 0.28 0.62 0.62 0.62 l5.84 0 c0.34 0 0.62 0.28 0.62 0.62 l0 1.3 c0 0.34 -0.28 0.62 -0.62 0.62 l-5.84 0 c-0.34 0 -0.62 0.28 -0.62 0.62 l0 2.2 c0 0.34 0.28 0.62 0.62 0.62 l6.74 0 c0.34 0 0.62 0.28 0.62 0.62 l0 1.28 c0 0.34 -0.28 0.62 -0.62 0.62 l-9.54 0 c-0.34 0 -0.62 -0.28 -0.62 -0.62 l0 -13.4 c0 -0.34 0.28 -0.62 0.62 -0.62 l9.54 0 c0.34 0 0.62 0.28 0.62 0.62 l0 1.24 c0 0.34 -0.28 0.62 -0.62 0.62 l-6.74 0 c-0.34 0 -0.62 0.28 -0.62 0.62 z M21.02 20 l-5.16 0 c-0.34 0 -0.6 -0.28 -0.6 -0.62 l0 -13.4 c0 -0.34 0.26 -0.62 0.6 -0.62 l5.16 0 c2.1 0 3.82 0.62 5.16 1.84 c0.72 0.66 1.26 1.44 1.62 2.36 c0.36 0.94 0.56 1.98 0.56 3.12 c0 1.16 -0.2 2.2 -0.56 3.12 c-0.36 0.94 -0.9 1.72 -1.62 2.38 c-0.66 0.6 -1.42 1.06 -2.3 1.36 c-0.86 0.3 -1.82 0.46 -2.86 0.46 z M18.66 17.52 l2.38 0 c0.52 0 1.04 -0.06 1.58 -0.18 c0.52 -0.12 1 -0.36 1.44 -0.72 c0.44 -0.34 0.8 -0.84 1.08 -1.46 s0.42 -1.44 0.42 -2.46 s-0.14 -1.84 -0.42 -2.48 c-0.28 -0.62 -0.64 -1.12 -1.08 -1.46 s-0.94 -0.58 -1.46 -0.7 c-0.54 -0.12 -1.06 -0.18 -1.56 -0.18 l-2.38 0 c-0.34 0 -0.6 0.28 -0.6 0.62 l0 8.4 c0 0.34 0.26 0.62 0.6 0.62 z M33.56 20 l-1.58 0 c-0.34 0 -0.6 -0.28 -0.6 -0.62 l0 -13.38 c0 -0.34 0.26 -0.62 0.6 -0.62 l1.58 0 c0.34 0 0.62 0.28 0.62 0.62 l0 13.38 c0 0.34 -0.28 0.62 -0.62 0.62 z  M47.419999999999995 8.46 l0 2.38 c0 0.34 0.28 0.62 0.62 0.62 l5.84 0 c0.34 0 0.6 0.28 0.6 0.62 l0 1.34 c0 0.34 -0.26 0.62 -0.6 0.62 l-5.84 0 c-0.34 0 -0.62 0.28 -0.62 0.62 l0 4.72 c0 0.34 -0.26 0.62 -0.6 0.62 l-1.58 0 c-0.34 0 -0.62 -0.28 -0.62 -0.62 l0 -13.4 c0 -0.34 0.28 -0.62 0.62 -0.62 l9.54 0 c0.34 0 0.6 0.28 0.6 0.62 l0 1.24 c0 0.34 -0.26 0.62 -0.6 0.62 l-6.74 0 c-0.34 0 -0.62 0.28 -0.62 0.62 z M64.5 20.28 c-4.18 0 -7.58 -3.4 -7.58 -7.6 c0 -4.18 3.4 -7.6 7.58 -7.6 c4.2 0 7.6 3.42 7.6 7.6 c0 4.2 -3.4 7.6 -7.6 7.6 z M64.5 7.699999999999999 c-2.64 0 -4.8 2.34 -4.8 4.98 c0 2.66 2.16 5 4.8 5 c2.66 0 4.8 -2.34 4.8 -5 c0 -2.64 -2.14 -4.98 -4.8 -4.98 z M76.77999999999999 20 l-1.58 0 c-0.34 0 -0.62 -0.28 -0.62 -0.62 l0 -13.4 c0 -0.34 0.28 -0.62 0.62 -0.62 l6.04 0 c0.74 0 1.44 0.12 2.06 0.36 c0.62 0.26 1.14 0.6 1.58 1.04 c0.44 0.46 0.8 0.98 1.04 1.6 s0.36 1.3 0.36 2.04 c0 1.1 -0.26 2.08 -0.82 2.9 c-0.44 0.66 -1 1.16 -1.66 1.52 c-0.3 0.16 -0.4 0.48 -0.18 0.74 c0.98 1.32 1.84 2.46 2.8 3.78 c0.2 0.28 0.1 0.66 -0.24 0.66 l-2.02 0 c-0.34 0 -0.78 -0.22 -0.98 -0.48 c-0.46 -0.6 -0.9 -1.22 -1.34 -1.82 l-1.32 -1.86 c-0.2 -0.28 -0.64 -0.5 -0.98 -0.5 l-1.54 0 c-0.34 0 -0.62 0.28 -0.62 0.62 l0 3.42 c0 0.34 -0.26 0.62 -0.6 0.62 z M77.99999999999999 12.86 l3.24 0 c0.24 0 0.52 -0.06 0.78 -0.16 c0.28 -0.1 0.52 -0.24 0.74 -0.46 c0.2 -0.2 0.38 -0.46 0.52 -0.76 s0.2 -0.66 0.2 -1.08 c0 -0.22 -0.02 -0.46 -0.08 -0.76 c-0.04 -0.3 -0.16 -0.58 -0.3 -0.84 c-0.16 -0.26 -0.4 -0.5 -0.68 -0.68 c-0.3 -0.18 -0.7 -0.28 -1.18 -0.28 l-3.24 0 c-0.34 0 -0.62 0.28 -0.62 0.62 l0 3.78 c0 0.34 0.28 0.62 0.62 0.62 z  M105.72 7.84 l-2.94 0 c-0.34 0 -0.62 0.28 -0.62 0.62 l0 10.92 c0 0.34 -0.28 0.62 -0.62 0.62 l-1.56 0 c-0.34 0 -0.62 -0.28 -0.62 -0.62 l0 -10.92 c0 -0.34 -0.28 -0.62 -0.62 -0.62 l-2.96 0 c-0.34 0 -0.62 -0.28 -0.62 -0.62 l0 -1.24 c0 -0.34 0.28 -0.62 0.62 -0.62 l9.94 0 c0.34 0 0.62 0.28 0.62 0.62 l0 1.24 c0 0.34 -0.28 0.62 -0.62 0.62 z M121.06 5.98 l0 13.4 c0 0.34 -0.28 0.62 -0.62 0.62 l-1.56 0 c-0.34 0 -0.62 -0.28 -0.62 -0.62 l0 -4.58 c0 -0.34 -0.28 -0.62 -0.62 -0.62 l-5.98 0 c-0.34 0 -0.62 0.28 -0.62 0.62 l0 4.58 c0 0.34 -0.28 0.62 -0.62 0.62 l-1.56 0 c-0.34 0 -0.62 -0.28 -0.62 -0.62 l0 -13.4 c0 -0.34 0.28 -0.62 0.62 -0.62 l1.56 0 c0.34 0 0.62 0.28 0.62 0.62 l0 5.1 c0 0.34 0.28 0.62 0.62 0.62 l5.98 0 c0.34 0 0.62 -0.28 0.62 -0.62 l0 -5.1 c0 -0.34 0.28 -0.62 0.62 -0.62 l1.56 0 c0.34 0 0.62 0.28 0.62 0.62 z M127.06 8.46 l0 2.42 c0 0.34 0.28 0.62 0.62 0.62 l5.84 0 c0.34 0 0.62 0.28 0.62 0.62 l0 1.3 c0 0.34 -0.28 0.62 -0.62 0.62 l-5.84 0 c-0.34 0 -0.62 0.28 -0.62 0.62 l0 2.2 c0 0.34 0.28 0.62 0.62 0.62 l6.74 0 c0.34 0 0.62 0.28 0.62 0.62 l0 1.28 c0 0.34 -0.28 0.62 -0.62 0.62 l-9.54 0 c-0.34 0 -0.62 -0.28 -0.62 -0.62 l0 -13.4 c0 -0.34 0.28 -0.62 0.62 -0.62 l9.54 0 c0.34 0 0.62 0.28 0.62 0.62 l0 1.24 c0 0.34 -0.28 0.62 -0.62 0.62 l-6.74 0 c-0.34 0 -0.62 0.28 -0.62 0.62 z  M162.56 5.960000000000001 l-5.04 13.82 c-0.12 0.32 -0.58 0.32 -0.72 0.02 l-3.46 -7.76 c-0.14 -0.32 -0.38 -0.32 -0.52 0 l-3.48 7.7 c-0.16 0.3 -0.6 0.3 -0.72 -0.02 l-4.98 -13.76 c-0.12 -0.32 0.06 -0.58 0.4 -0.58 l1.74 0 c0.34 0 0.72 0.26 0.82 0.58 l2.46 6.86 c0.1 0.32 0.32 0.32 0.46 0.02 l3.18 -7.22 c0.14 -0.3 0.6 -0.3 0.74 0 l3.18 7.24 c0.14 0.3 0.36 0.3 0.46 -0.02 l2.52 -6.88 c0.1 -0.32 0.48 -0.58 0.82 -0.58 l1.74 0 c0.34 0 0.52 0.26 0.4 0.58 z M167.38 8.46 l0 2.42 c0 0.34 0.28 0.62 0.62 0.62 l5.84 0 c0.34 0 0.62 0.28 0.62 0.62 l0 1.3 c0 0.34 -0.28 0.62 -0.62 0.62 l-5.84 0 c-0.34 0 -0.62 0.28 -0.62 0.62 l0 2.2 c0 0.34 0.28 0.62 0.62 0.62 l6.74 0 c0.34 0 0.62 0.28 0.62 0.62 l0 1.28 c0 0.34 -0.28 0.62 -0.62 0.62 l-9.54 0 c-0.34 0 -0.62 -0.28 -0.62 -0.62 l0 -13.4 c0 -0.34 0.28 -0.62 0.62 -0.62 l9.54 0 c0.34 0 0.62 0.28 0.62 0.62 l0 1.24 c0 0.34 -0.28 0.62 -0.62 0.62 l-6.74 0 c-0.34 0 -0.62 0.28 -0.62 0.62 z M188.77999999999997 10.38 c-0.12 0.32 -0.28 0.64 -0.48 0.92 s-0.46 0.52 -0.76 0.7 c-0.14 0.1 -0.3 0.18 -0.46 0.24 c-0.26 0.08 -0.24 0.1 0.06 0.18 c0.18 0.06 0.34 0.12 0.52 0.2 c0.36 0.18 0.66 0.42 0.94 0.74 c0.28 0.3 0.52 0.66 0.7 1.06 s0.26 0.82 0.26 1.26 c0 0.8 -0.12 1.48 -0.36 2.04 c-0.24 0.54 -0.56 1 -0.98 1.34 c-0.4 0.34 -0.88 0.58 -1.44 0.72 s-1.14 0.22 -1.78 0.22 l-6.14 0 c-0.34 0 -0.62 -0.28 -0.62 -0.62 l0 -13.4 c0 -0.34 0.28 -0.62 0.62 -0.62 l5.82 0 c0.6 0 1.14 0.06 1.66 0.16 c0.52 0.12 0.98 0.32 1.36 0.64 c0.4 0.3 0.7 0.7 0.92 1.24 c0.24 0.52 0.34 1.2 0.34 2.02 c0 0.3 -0.06 0.62 -0.18 0.96 z M181.66 11.32 l2.82 0 c0.28 0 0.54 -0.06 0.74 -0.16 s0.38 -0.26 0.52 -0.42 c0.14 -0.18 0.24 -0.38 0.32 -0.6 s0.1 -0.44 0.1 -0.66 c0 -0.2 -0.04 -0.42 -0.12 -0.62 s-0.18 -0.38 -0.32 -0.52 c-0.12 -0.14 -0.28 -0.26 -0.46 -0.36 s-0.38 -0.14 -0.58 -0.14 l-3.02 0 c-0.34 0 -0.62 0.28 -0.62 0.62 l0 2.24 c0 0.34 0.28 0.62 0.62 0.62 z M185.67999999999998 17.34 c0.22 -0.1 0.4 -0.26 0.56 -0.46 c0.16 -0.18 0.3 -0.4 0.38 -0.64 c0.1 -0.22 0.14 -0.46 0.14 -0.7 c0 -0.5 -0.18 -0.9 -0.54 -1.24 s-0.88 -0.5 -1.52 -0.5 l-3.04 0 c-0.34 0 -0.62 0.28 -0.62 0.62 l0 2.48 c0 0.34 0.28 0.62 0.62 0.62 l3.34 0 c0.24 0 0.48 -0.06 0.68 -0.18 z"/></g>
			</g>
		</svg>
	