<svg xmlns="http://www.w3.org/2000/svg" viewBox="0 0 298.3 91.1"><defs><clipPath id="A"><path d="M0 0h109.1v91.1H0z" fill="none"/></clipPath></defs><g clip-path="url(#A)"><g clip-path="url(#A)" fill="#fff"><path d="M86.45 83.06a13.85 13.85 0 0 1-9.26 1.09A31.06 31.06 0 0 1 70.94 82l-4.4-1.8a20.63 20.63 0 0 0-11.78-.26h-.4a20.63 20.63 0 0 0-11.78.26c-1.5.5-2.94 1.18-4.4 1.8a31.06 31.06 0 0 1-6.25 2.17 13.89 13.89 0 0 1-9.27-1.09l-.43-.2a.2.2 0 0 0-.15.07 16.05 16.05 0 0 0 7 4.13 14.09 14.09 0 0 0 5.52.4 17.75 17.75 0 0 0 7.79-3l4.25-2.85a7 7 0 0 1 5.29-1c1 .1.25.6.1.68a42.23 42.23 0 0 0-7.13 4.43c-1.5 1.1-4.2 3.7-4.2 3.7l2 1.73 2.2-2.4a37.8 37.8 0 0 1 9.21-7.13.69.69 0 0 1 .91 0 37.8 37.8 0 0 1 9.21 7.13l2.2 2.4 2-1.73-4.2-3.7a42.63 42.63 0 0 0-7.13-4.43c-.16-.08-.93-.57.1-.68a7 7 0 0 1 5.29 1l4.24 2.85a17.83 17.83 0 0 0 7.8 3 14.09 14.09 0 0 0 5.52-.4 16.09 16.09 0 0 0 7-4.12s-.1-.1-.15-.08l-.44.2m9.76-8.7A12.63 12.63 0 0 1 92 76.59a24.07 24.07 0 0 1-6.59 1 79.4 79.4 0 0 0-8.59.74c-.17 0-.26 0-.2-.1a10.58 10.58 0 0 0 5.61-5.41l2.8-5.65A.27.27 0 0 0 85 67c-.2.07-3 2.46-4.3 3.65l-4.67 4.52a17.55 17.55 0 0 1-7.34 3.75h-.1a.26.26 0 0 0-.06.12l5.4 1.26A37.12 37.12 0 0 0 81 81.64a16.69 16.69 0 0 0 15.45-7.23.23.23 0 0 0-.2 0M105 61a22.51 22.51 0 0 1-5 4.36 31.49 31.49 0 0 1-5.13 2.8 27.18 27.18 0 0 0-6.31 3.71l-.37.28c-.07 0-.13 0-.06-.13s3-3.1 3.88-9.4a37.08 37.08 0 0 1 .99-6.7.2.2 0 0 0 0-.17 29.29 29.29 0 0 0-4.75 8.63l-1.76 5.06a16.22 16.22 0 0 1-3.65 6.14l-.16.16a.39.39 0 0 0 0 .11c.25 0 .42-.06.58-.1l5.84-1.2a19.13 19.13 0 0 0 8.78-3.74 20.85 20.85 0 0 0 6.34-7.43 13.92 13.92 0 0 0 1-2.42.2.2 0 0 0-.18 0M108.77 46a18.34 18.34 0 0 1-4.58 7.18 65.52 65.52 0 0 0-6.63 7.54c0 .07-.16 0-.12-.08a19.57 19.57 0 0 0 .62-8.48c-.38-2.4-1.43-5-1.7-7.94 0 0-.08-.13-.12-.13a2.42 2.42 0 0 0-.1.28 26.32 26.32 0 0 0-1.23 5.82c-.13 2.4.32 5.46.12 7.92-.23 2.84-.42 5.65-1.72 8.23a.38.38 0 0 0 0 .2l6-3.73a23.07 23.07 0 0 0 6.31-6 18 18 0 0 0 3.29-10.49 1.68 1.68 0 0 0 0-.38s-.14.07-.14.1"/><path d="M102.45 47.6a.08.08 0 0 1 0 .06.1.1 0 0 1-.09-.07 13 13 0 0 0 0-2.41c-.2-2.8-1.9-5.14-3.4-7.47a35.66 35.66 0 0 1-2.68-4.79s-.12-.08-.16-.07c0 .25 0 1.08.1 1.62a52.49 52.49 0 0 0 3 11.77 16.31 16.31 0 0 1 1 7.44c0 .22 0 .25.06.32.9-1.3 2.67-3.14 3.76-4.46s7.1-8.2 4.18-17.6a6 6 0 0 0-.46-1.16s-.12.1-.13.14c0 6.78-3.26 9.7-4.63 14.32-.26.88-.46 1.7-.64 2.38m.12-14.02l-.64-1.65-.37-.85a13.5 13.5 0 0 0-4.13-4.56 22.29 22.29 0 0 1-3.61-4 .24.24 0 0 0-.15 0h-.08c.06.28 1 3.27 1.6 4.66a27.07 27.07 0 0 0 3.58 5.42l.28.38a30.09 30.09 0 0 1 3.93 7.46c0 .06.13.1.13.08l1.67-5.17a52.55 52.55 0 0 0 1.47-5.58c.63-4.46-.84-10.24-3.44-13.4a.21.21 0 0 0-.07.16l.13.4.15.6a18.46 18.46 0 0 1 .12 7.42 32.62 32.62 0 0 0-.54 5.9c0 .33.22 2.77.2 2.87s-.14 0-.15 0M94.47 8.5a8.3 8.3 0 0 1 1.94 2.79c.72 1.68.93 4.2 1.4 6.13l.87 3.3c0 .12-.1.17-.15.06a18 18 0 0 0-5.38-4.45 12.51 12.51 0 0 1-3.5-3.15l-.53-.7s-.13-.06-.16 0a1.46 1.46 0 0 0 0 .29 12.63 12.63 0 0 0 3.08 6c1.26 1.2 2.68 2.27 4 3.4a33.36 33.36 0 0 1 4.75 4.84s.1.07.1 0v-1.57l.13-4.8V19a11.75 11.75 0 0 0-.88-4.8 11.11 11.11 0 0 0-5.25-5.74 2.14 2.14 0 0 0-.47-.18.37.37 0 0 0 0 .18M84.2 3.75a23 23 0 0 1 3.67 4.38 21.21 21.21 0 0 0 3.47 4.27c.93.94 3.63 3 4.3 3.57-.14-.78-1.37-6.48-4.93-9.3a17.88 17.88 0 0 0-6.86-3.37.22.22 0 0 0 0 .17l.33.28m-56.03 77.9a37.22 37.22 0 0 0 6.94-1.29l5.38-1.26h.06a.57.57 0 0 0-.07-.12h-.1A17.55 17.55 0 0 1 33 75.15l-4.66-4.52-4.3-3.65v.15c.4.55 1.9 3.92 2.8 5.65a10.58 10.58 0 0 0 5.61 5.41c.06.06 0 .14-.2.1a79.4 79.4 0 0 0-8.59-.74 24.12 24.12 0 0 1-6.59-1 12.63 12.63 0 0 1-4.18-2.21.23.23 0 0 0-.2 0 17.89 17.89 0 0 0 8 6.25 17.81 17.81 0 0 0 7.5 1m-2.27-5.83c.17 0 .33.06.58.1a.27.27 0 0 0 0-.11l-.16-.16a16.24 16.24 0 0 1-3.66-6.14l-1.75-5.06a29.17 29.17 0 0 0-4.75-8.63.23.23 0 0 0 0 .17 38 38 0 0 1 1.06 6.71C18 68.94 21 71.92 21 72s0 .18-.06.13l-.37-.28a27.11 27.11 0 0 0-6.3-3.71 31.18 31.18 0 0 1-5.14-2.8 22.28 22.28 0 0 1-5-4.36A.2.2 0 0 0 4 61a13.15 13.15 0 0 0 1 2.4 20.78 20.78 0 0 0 6.35 7.43 19.09 19.09 0 0 0 8.77 3.74c2 .32 3.9.8 5.84 1.2M9.77 62.8l6 3.73s.08-.13.05-.2c-1.3-2.58-1.5-5.4-1.72-8.23-.2-2.46.25-5.53.13-7.92A26.91 26.91 0 0 0 13 44.32a2.42 2.42 0 0 0-.1-.28.52.52 0 0 0-.12.13c-.01.04 0 0 0 0-.25 2.93-1.3 5.55-1.68 7.94a19.57 19.57 0 0 0 .61 8.48c.05.12-.07.15-.1.08a67.49 67.49 0 0 0-6.63-7.54A18.11 18.11 0 0 1 .35 46s-.12-.1-.15-.1 0 .25 0 .38a18 18 0 0 0 3.26 10.47 23.07 23.07 0 0 0 6.31 6M8.74 54c.1-.07.1-.1.06-.32a16.32 16.32 0 0 1 1.06-7.44 53.58 53.58 0 0 0 3-11.77c0-.54.1-1.37.1-1.62a.26.26 0 0 0-.15.07 36.84 36.84 0 0 1-2.69 4.79C8.65 40 7 42.36 6.75 45.17a14 14 0 0 0 0 2.41s0 .1-.1.07a.08.08 0 0 1 0-.06L6 45.2c-1.36-4.63-4.63-7.54-4.6-14.3 0 0-.08-.14-.13-.14a6.72 6.72 0 0 0-.46 1.16C-2.1 41.34 3.8 48.1 5 49.52S7.84 52.68 8.74 54M4.5 35.27l1.66 5.17s.12 0 .14-.08a30 30 0 0 1 3.92-7.46l.28-.38a27.07 27.07 0 0 0 3.58-5.42c.6-1.4 1.53-4.38 1.6-4.66h-.07a.21.21 0 0 0-.16 0 22.29 22.29 0 0 1-3.61 4 13.37 13.37 0 0 0-4.18 4.66 9.07 9.07 0 0 0-.38.85l-.64 1.65c-.01.01-.1.15-.14 0s.17-2.54.2-2.87a31.76 31.76 0 0 0-.55-5.9 18.46 18.46 0 0 1 .12-7.42 5.69 5.69 0 0 1 .16-.59c0-.15.07-.26.12-.4a.21.21 0 0 0-.07-.16C3.86 19.45 2.4 25.23 3 29.7a50.2 50.2 0 0 0 1.5 5.58m3.62-14.6l.13 4.8-.05 1.57h.1a34.52 34.52 0 0 1 4.72-4.89l4-3.4a12.63 12.63 0 0 0 3.08-6 1.46 1.46 0 0 0 0-.29h-.15l-.54.7A12.37 12.37 0 0 1 16 16.29c-2.37 1.5-4 2.63-5.38 4.45-.06.1-.18.06-.14-.06l.86-3.3c.47-1.92.68-4.45 1.4-6.13a8.45 8.45 0 0 1 1.91-2.75.27.27 0 0 0 0-.18 2.07 2.07 0 0 0-.46.18A11.09 11.09 0 0 0 9 14.22 11.75 11.75 0 0 0 8.07 19v1.65M13.4 16h.06l4.32-3.57a21.51 21.51 0 0 0 3.46-4.27 23.38 23.38 0 0 1 3.67-4.38l.33-.28a.27.27 0 0 0 0-.17 17.81 17.81 0 0 0-6.94 3.36c-3.57 2.82-4.8 8.52-4.94 9.3M53.6 47.05c.28-.42-.42-.68-.6.05s.32.37.6-.05m7.6-17.6c-.27-.14-1.38 1.22-1.2 1.44a5.08 5.08 0 0 0 1.21-1.44m.23-.24c.17.1.9-.3.77-.42s-1-.5-1-.27c0 .4.1.6.26.7m13.4 12.4c.37-.08.33-.7 0-.67s-.73.52-.62.53.44.2.64.14M70 28.32c-.3 0-.38.33-.1.48a1.07 1.07 0 0 0 .74-.11c.2-.12.43-.28.38-.6s-.45-.7-.23-.9.5.13.73 0 .27-.28.27-.52-.12-.8-.52-.8-.8.8-.83.84a.92.92 0 0 0 0 .67c.18.4.1.9-.45.9"/><path d="M76.56 28.37c0 .2.52 1.46.58 1.8s.16 1.38.44 1.28.16-.7.12-1a12.22 12.22 0 0 0-.53-2.15c-.14-.44-.75-1.85-1-1.8s.3 1 .37 1.35 0 .3 0 .47M73.1 11.4c.32.13.32-.48-.23-.93s-1.28-.23-1.1 0a6.41 6.41 0 0 0 1.32.94m-15-4.3c-.65-.42-.1-1-.63-1.4a1.64 1.64 0 0 0-1.64.29c-.45.57.57.38.93.55s1.3.93 1.44.78 0-.2-.1-.26m3.98-1.96c-.88-.4-4.2-.4-4.1.47s1.92 0 2.4 0 2.5-.08 1.72-.48M53 43.7c-.16-.08-.53.07-.58-.1s-.33-.13-.26 0-.08.3.06.5a.66.66 0 0 0 .82 0 .31.31 0 0 0 0-.42M51.12 37c.27 0 .26-.2.42-.2s0 .2.3.2.56-.7-.32-.7c-.72 0-.63.7-.4.7m1.14.76c-.54-.14-.43.17-.77.2-.56.06-.06-.4-.34-.63-.12-.1-.44.38-.47.68 0 .15 0 .63.22.65l1.9.25c.4.1 0-1-.53-1.16m-6.12 6.6c.17 0 .3-.6.2-.9s-.65-.07-.7.06.34.83.5.83m-8.02-.04c0-.25 0-1-.17-1.15s-.16.13-.3.1-.1-.36-.22-.36 0 .6.18 1 .47.92.5.45m-.18-1.88a8 8 0 0 0 .28-1.82c0-.48-.3-.93-.37-.9s0 .33.06.8A6.63 6.63 0 0 1 37.6 42c0 .2.2.7.34.42"/><path d="M27.67 64.9c14.85 14.854 38.93 14.856 53.785.005s14.856-38.93.005-53.785-38.93-14.856-53.785-.005S12.82 50.056 27.67 64.9m-9.5-26.07H24a30.44 30.44 0 0 0 1.49 8.68 3.39 3.39 0 0 1-.92-.36c-.37-.2-.66.07-.82.06-.38 0-.92-.3-.92 0s.43.14.4.3-1 .17-1.1-.22-.27-.75-.35-.3-.5.37-.68.52a.68.68 0 0 0-.19.52c0 .2-.53.06-.5.43s.32.4.4.73.36.53.2.64-.14-.12-.28 0 .92 3.14 1.15 3-.3-1-.28-1.4.08-.53.37-.66 1.12 1.2 1.4 1-.08-.42.18-.52 1.2 1.34 1.5.9c.17-.27.35.18.43.33.27.5.82.52 1.15 1.06s1 1.74 1.52 1.66.22-.46.38-.46.36.65.7 1.1a2.15 2.15 0 0 0 .87.58 29.43 29.43 0 0 0 2.29 2.7l-4.14 4.13a36.13 36.13 0 0 1-10.07-24.4m33.13-8.4l-.44.2a7.82 7.82 0 0 0-1.54 1l-4.12-4.12A14 14 0 0 1 53.75 24v5.83a8.25 8.25 0 0 0-2.09.48c.22-.37.64-.75.6-.8s-.67.46-.95 1m-3.1 9.5a.19.19 0 0 0 0 .08.37.37 0 0 0 0 .11 1.2 1.2 0 0 0-.17-.47.55.55 0 0 0-.3-.21.49.49 0 0 0-.32 0h-.18l-.2.08h-1.43c-.2 0-.33 0-.34-.1-.1-.44.46-.06.93-1.3a5.2 5.2 0 0 1 .18-.4l.1-.15.1-.12.1-.1a.66.66 0 0 1 .6-.21h.25l.15.15.33.66a1.77 1.77 0 0 0 .24.17 1.27 1.27 0 0 1 .41.32l.07.12a.31.31 0 0 0 .05.1.37.37 0 0 0 .23.14h.1a.64.64 0 0 0 .2 0h.1c.16-.06.25 0 .28 0a.19.19 0 0 1 0 .08.41.41 0 0 1-.06.19.74.74 0 0 1-.13.21.38.38 0 0 1-.35.17c-.18 0-.36-.1-.5-.12a.21.21 0 0 0-.21.07V40m-11 9.63a3.69 3.69 0 0 1-.42-1.77 3.67 3.67 0 0 0-.52-1.7 3 3 0 0 1-.17-1.16c0-.73-.6-.46-.6-.67s.45 0 .53-.17-.64-1-1.06-1.25-.3-.48-.26-.77a1.7 1.7 0 0 0-.17-.83c-.14-.43 0-1.07.5-1.14.2 0 .55.15.8 0s.1-.85.08-1.28h2.75a12 12 0 0 0 .11 1.28c-.18.14-.3.3-.22.43a.24.24 0 0 0 .3.11 15.77 15.77 0 0 0 3.81 7.82l-4.12 4.12c-.33-.35-.64-.7-.94-1.08a2 2 0 0 0 0-.34c0-.65-.45-1.1-.7-1.65m-3.63-7a21.48 21.48 0 0 1-.47-3.76h2.44c-.15.34-.66.63-.75.86s-.65 1.32-.3 1.7c.8.93-.32 1.4-.9 1.2m.5 14.86l-.47.46a23.52 23.52 0 0 1-.67-.74c.25-.14.65 0 1.1.3m6.2-25.72a.92.92 0 0 0-.19.13c-.3.28-1.06.25-1 .53s2.17-.66 2.25-.45-.94.47-1.53.75-.83.76-1.77.77c-.45 0-.7.38-.9.73a6.7 6.7 0 0 0-.65 1.21 5.15 5.15 0 0 1-.36 1.79h-2.93A21.47 21.47 0 0 1 38.8 23.4l4.1 4.12a15.74 15.74 0 0 0-2.71 4.2m3.86-3l3.6 3.6a2.49 2.49 0 0 1-.37 0c-.36-.05-.42-.3-.67-.27-.6.1-.66.27-.78.18a8.21 8.21 0 0 0-1.46-1 2.6 2.6 0 0 0-2 .15.7.7 0 0 1-.17.09 14.54 14.54 0 0 1 1.89-2.7M39 36c-.05.4-.08.78-.1 1.17h-2.1a1.18 1.18 0 0 1 .16-.87 1.19 1.19 0 0 1 1.16-.54A2.47 2.47 0 0 1 39 36m1.76 4.67L41 41c.15.15.38.38.6.27s.67 0 .75.05a1.83 1.83 0 0 1 .73.54c.2.27.6.08.87.3s.6.43.25.57.4.58.52.56.2-.16.15-.47c0-.12.16-.54.54-.42s1.17 1.18 1.5.84.14-.88.23-1.06a.9.9 0 0 1 .15-.23 8.42 8.42 0 0 0 .88 1.32l-4.12 4.13a14.07 14.07 0 0 1-3.31-6.67m3.3-14.34L40 22.25a21.36 21.36 0 0 1 13.8-5.72v5.82a15.66 15.66 0 0 0-9.69 4m-5.3-5.24L34.68 17a28.87 28.87 0 0 1 19.07-7.92v5.82a23 23 0 0 0-15 6.21m-1.15 1.14a23.06 23.06 0 0 0-6.21 15h-5.77a28.92 28.92 0 0 1 7.91-19.07zm-6.16 16.6a23.37 23.37 0 0 0 .33 3.16c-.15 0-.14-.26-.44-.25s-1.44 2-1.88 2.76c-.36.66.17 2.25-.4 2.7a3.62 3.62 0 0 1-1.75.29h-.1a28.49 28.49 0 0 1-1.58-8.64zm22.3 35.57A36.13 36.13 0 0 1 29.4 64.33l4.13-4.13a30.47 30.47 0 0 0 20.22 8.39zm0-7.44a28.88 28.88 0 0 1-19.07-7.92l.66-.65a2.29 2.29 0 0 0 .47.28 2.11 2.11 0 0 0 1.38.15c.43-.07 1.16-.82 1.66-.82s1.28.22 1.77-.1-.34-1.32-.6-1.78a2.58 2.58 0 0 0-.22-.31 23 23 0 0 0 14 5.32zm0-7.45a21.34 21.34 0 0 1-13.81-5.72l4.12-4.12a15.68 15.68 0 0 0 6.76 3.58c-.87.43-1.35 1-1.17 1.53s-.65.8-.65 1.42.8 1 .94 1.56c.08.33.8.75 1.42 1.17a6.15 6.15 0 0 0 2.35.16zm-.25-8c-.3-.24-.47.2-.87.44a14 14 0 0 1-7.42-3.44l4.12-4.12a8.18 8.18 0 0 0 4.41 1.83c0 .24.15.44.2.78s-.3.6-.2.8 1 0 1.07-.27-.26-.47-.42-.77a2.77 2.77 0 0 1-.17-.51h.35a6.84 6.84 0 0 0 .91-.06.26.26 0 0 0 .21-.18 1.18 1.18 0 0 1 .12-.28 1.14 1.14 0 0 1 .09-.16v-.05l.08.08c.13.23.26.8.55.68s.35-1 .2-1.25a.88.88 0 0 1 0-.89c0-.12.07-.73.3-.6s0 .6 0 .75c0 .3.16.7.52.53.15-.07.42-.44.62-.3s-.52.32-.56.5.27.32.16.43-.18 0-.26.07.25.72 0 .8-.9.32-1.08.4-.37-.1-.27-.22-.04-.5-.17-.5-.2.12-.23.3.23.45.2.6-.34.15-.5.27a7.56 7.56 0 0 1-.77.85c-.3.2-.87.25-.88.36s.3.25.37.34c.24.28.35.72-.06.9s-.86-.32-1.14-.15-.35.6-.4 1.16 1.1.75 1.65.48c.37-.18.35-.85.72-1s.35-.57.68-.5.3-.3.7-.3.43.27.94.4c.8.22.77.83.93.48s.23-.5-.44-.65-.86-.9-.4-.65c.62.3 1.13.28 1.25.63s.74.24.8.54c.1.45.48 0 .23-.28s-.24-.4 0-.62.32.1.6-.28-.14-.3-.17-.5.05-1.3.36-1.1.75-.1.6-.23.08-.7.18-.66 0 .38.12.5 1.12-.3 1.2.15-.72.75-.87.75c-.38 0-.7.38-1 .75s-.64.53-.38.9.6.3 1 .1.72-.54.93-.64c.44-.2.67 1 .54 1.24s-.6.32-.8.5a4.25 4.25 0 0 1-1.91.6c-.38.08-.4.23-.5.56s-1.9.1-2.35.06.28-.9-.33-.85-1.22.24-1.84.34c-.4.07-1 .57-1.5.2m5.32 9.24a2.89 2.89 0 0 1 1.3 1.05c.33.5.44.68.16 1.15-.52.86-.26 1.45.7 1.8.56.2.76.82 1.22 1.2a29 29 0 0 1-6.83 1v-5.82a24.3 24.3 0 0 0 3.44-.39m-3.44-1.24v-.74c1.3-.2 1 .56 1.94.3a.91.91 0 0 1 .85.15 23.12 23.12 0 0 1-2.79.29m0 14.9V68.6A30.3 30.3 0 0 0 64.25 67a.57.57 0 0 0 .33.11 2.65 2.65 0 0 0 1.09-.36 14.6 14.6 0 0 0 2.73-1.49 31.17 31.17 0 0 0 7.2-5.09l4.13 4.13a36.13 36.13 0 0 1-24.35 10.11m16.2-52.24l1.43-1.4a2.21 2.21 0 0 0 1.37.75c.5.07.68.28.76.77s.64.73 1.1.82.78.66 1.2.73 1.67 1.78 2.16 2.38c.26.32.73.8 1 .42s.35-.26.46-.35a29 29 0 0 1 2.47 10.92H77.7a23.65 23.65 0 0 0-.47-3.88 2.66 2.66 0 0 0 .29-1.27c0-.43-.38-.57-.68-.3a21.24 21.24 0 0 0-.76-2.25 12.73 12.73 0 0 0-.33-1.32c0-.14-.2-.25-.4-.35-.17-.35-.35-.7-.54-1 .3-.25.37-.72 0-.65-.6.1-.2-.32-.4-.55s-.2 0-.3.07a22.71 22.71 0 0 0-2.58-3.36c0 0 0 0 0-.06a.11.11 0 0 0 0-.08m3.54 33.94a11.76 11.76 0 0 1-.48-1.3c-.06-.36-.86-.4-.88-.2a3.46 3.46 0 0 1-.12 1.18v.1l-2.1-2.1a23 23 0 0 0 6.21-14.95h5.82a28.83 28.83 0 0 1-7.93 19.03l-.3-.3a2.4 2.4 0 0 0-.17-1.48m-4.8 4c.3-.55.9-1.37 1.15-1.93s-.82-1.25-1.45-1.44-.64-.55-.57-1a16.33 16.33 0 0 0 .88-.78l4.12 4.1a29.06 29.06 0 0 1-4.39 3.42c-.14-.22.64-.88.8-1.25s-.8-.65-.54-1.1m2.48-23.9c-.5-.7.2-.75.88-1.08.4-.18.86.07.94-.14s.25-.6.44-.7a1.44 1.44 0 0 0 .61-.46c0 .2.07.4.1.6a4.24 4.24 0 0 0-.31 1.1c0 .3 0 .7.34 0 0-.06.07-.12.1-.2.08.6.13 1.22.15 1.84h-4.28a.43.43 0 0 1 0-.07c.22-.57 1.3-.45 1-.9M73.6 28a.86.86 0 0 1-.07.1c-.13.1-.63-.66-.6-.1s.2.8.6.94.2.34.46.43a.88.88 0 0 1 .39.25A21.1 21.1 0 0 1 75.48 33a1.51 1.51 0 0 0-.43.32c-.18.24-.14.62-.3.86-.35.52-.44.8-1.18.56-.5-.17-.07-.8 0-1.3s.33-.44.33-.65-1-1.4-1.5-1-.44.85-.75 1.24c-.16.2-.38.22-.68 0s-.38-.4-.3-.6-.74-1.13-1-1.52a2.39 2.39 0 0 0-1.57-.81 15.28 15.28 0 0 0-1.87-2.56l4.1-4.12A21.75 21.75 0 0 1 73.6 28m-6.94 2.84l-.23.32c-.12.2-.57-.23-.72-.07s.7 1.1-.13.84-.28-.34-.28-.57-.74-.53-.32-.67 0-.46.36-.58.32-.54-.25-.65-.37 1.06-.73.9a4.38 4.38 0 0 0-.88-.12l1.36-1.36a1.24 1.24 0 0 0 .5.1 13.59 13.59 0 0 1 1.32 1.86m-1.54 20.24a13.5 13.5 0 0 1 1.88.44c.4.2.72.6 1 .1a7.56 7.56 0 0 0 1.23-3c.23-1.5-.07-2-.3-2.05s-.6.4-1 .43c-.24 0-.18.44-.17.7s-.43.57-.54.42-.36-.17-.23.07-.8.14-1.2-.08c-.57-.3.67-.32 1.32-.78a10.4 10.4 0 0 0 1.46-1.43c.3-.46.33-1.12.76-1.48s1.35-.32 1.37-.86.22-.45.52-.36 3.1-.1 3.06-1c0-.42-.64-.92-1.25-1-.37 0-.5-.76-.73-1.22a9.9 9.9 0 0 0-.69-1.15h4.42a21.44 21.44 0 0 1-5.73 13.8l-.06-.06v-.37c.07-.8-.5-2.1-.7-1.93s0 .24-.63 1.08c-.23.32-.47.84-.86.85s-.43-.25-1-.14a3.34 3.34 0 0 1-1.6 0 12.39 12.39 0 0 1-2.67-1.27c.1-.1.38.13.37-.16s1.6.4 1.9.5M80.8 63.2l-4.13-4.13a30.44 30.44 0 0 0 8.39-20.21H91a36.09 36.09 0 0 1-10.13 24.31M91 37.2h-5.87a30.62 30.62 0 0 0-3-12.35l.1-.1c.45-.43-1.9-3.35-2.26-3.72s-.84-.82-1.27-1.26a14.57 14.57 0 0 1-2.19-2.62l4.32-4.3A36.17 36.17 0 0 1 91 37.21M55.38 1.63a36.18 36.18 0 0 1 24.35 10.08l-4 4c-.25-.15-.44-.2-.3-.38.25-.33-.27-.28-.44-1.1a3.44 3.44 0 0 0-1.5-1.92c-.5-.28-.84-.66-1.3-.92s-1.5-.83-2-.6a4.35 4.35 0 0 1-1 .23 30.38 30.38 0 0 0-13.7-3.64zm0 7.45a28.93 28.93 0 0 1 12.25 3.08 4.37 4.37 0 0 0 .84 1.78 8.89 8.89 0 0 0 .83 1.35c.3.33.1.9.24 1.4 0 .22.23.4.26.62a6.62 6.62 0 0 0 0 .77c0 .15.4.08.66-.15s.52-.56.92-.47.94.85 1.22 1.42l-1.93 1.93c-.23-.44-.36-.85-.28-.93s.3.12.4.13c.4 0-.28-.34-.33-.4-.3-.27-.34-.7-.72-.95s-1-.14-1.17-.45A5.82 5.82 0 0 0 67 16.44c-.06 0 .8 1.13.54 1.34S66.1 17 66 17.2s1.2.7 1.55 1.07c.2.2.62.78 1 1.33a23 23 0 0 0-13.17-4.71zm0 7.45a21.36 21.36 0 0 1 13.8 5.72l-4.1 4.12a15.66 15.66 0 0 0-9.69-4zm0 7.45a14 14 0 0 1 8.54 3.54l-.24.23-.2-.08c-.48-.18-1.55.76-1.28.92s.58-.37.83-.34h.13l-1.8 1.8c-.53.23-1 .6-1 .93a.13.13 0 0 0 0 .06l-.56.56-.33-.26a8.32 8.32 0 0 0-1.61-.93 1.24 1.24 0 0 0 .45-.88c0-.62-.2-.36-.53-.13s-.64.36-.77.7a7.61 7.61 0 0 0-1.63-.33zm-.7 7.42a.35.35 0 0 1-.13.48c-.22.17-.75-.5-.92.06s.36.3.44.44a2.18 2.18 0 0 0 1.22.72c.4 0 1 0 1 .44 0 .2.55.17.56.37 0 .35.3.77.55.72a.46.46 0 0 1 .48.75c-.27.32.3.2.4.85s-.47.15-.6.6a2.45 2.45 0 0 1-.63.75c-.12.1.1.3.24.2s.33-.42.56-.36.56 1.1.88 1.25.24.5.28.63-.48 0-.43.17.66.34.66.6a.73.73 0 0 1-.66.58c-.26 0-.8-.68-.78-.53s.23.8.5.75 1-.3.74.07-.17 1-.36 1-.32 0-.1.28a.86.86 0 0 1-.17.88c-.17.18-.65 0-.67-.14s.64-.1.64-.4-.34-.37-.87-.2c-.27.1-.4-.08-.6-.1s-.75.66-.84.8a1.51 1.51 0 0 0-.09.6 2 2 0 0 1-.35 1 6.15 6.15 0 0 1-1.06.09A6.61 6.61 0 0 1 50.2 43a1.35 1.35 0 0 1 .82-.18c.33.08.37-.1.58-.16s.7.25 1 0 1-1.5.92-1.76.73-.75.58-.9-.18.06-.22 0 .22-.1 0-.48-.5-.15-.65-.25c-.34-.22-.8-.32-.9-.2s-.4-.17-.52-.13a.52.52 0 0 0-.34.27c-.1.17.14.36.1.56-.07.37-.7.73-.73 1s-.27.06-.37.24 0 .33-.23.33-.5.54-.74.92a6.72 6.72 0 0 1-.86-1.33c.18-.08.37-.25.55-.13.34.22 1.5-1.88 1.3-2.46s-.5-.17-.75-.06-.35-.16-.16-.28 1.4-.1.7-.54c-.27-.18-1.13-.22-1-.47s.45 0 .58 0c.52.18.8-.76 1.13-.78.53 0 .34-1-.16-.74s-.7.2-.93.46-.7.68-.68.27c0-.17 1.12-.84 1.35-1.1a2.32 2.32 0 0 0 .46-.77c.14-.32 1.53-.5 1.8-.67a1.33 1.33 0 0 0 .44-.85c0-.27-.4-.2-.46-.38s.54 0 .5-.33-.55 0-.7-.2c-.05-.07 0-.15.1-.24a6.81 6.81 0 0 1 2-.3h.13M53.75 1.63v5.82a30.51 30.51 0 0 0-20.22 8.39L29.4 11.7A36.18 36.18 0 0 1 53.75 1.63m-25.5 11.23L32.38 17A30.44 30.44 0 0 0 24 37.21h-5.82a36.17 36.17 0 0 1 10.07-24.35"/></g></g><path d="M146.18 5.56h7.67V30q0 6.48-4 9.8a17.29 17.29 0 0 1-20.43 0q-4-3.33-4-9.8V5.56h7.66V30c0 2.45.6 4.22 1.75 5.33a7.87 7.87 0 0 0 9.64 0c1.16-1.1 1.73-2.88 1.73-5.33zm24.65 14.98a5 5 0 0 0-4.66 2.65v19.46h-7.37V15.1h6.9l.25 3.15a9.66 9.66 0 0 1 7.93-3.66 8.63 8.63 0 0 1 6.31 2.34q2.4 2.34 2.4 8.18v17.55h-7.4v-17.6c0-1.76-.38-3-1.13-3.6a5 5 0 0 0-3.25-.94zM187.42 8a3.69 3.69 0 0 1 1.12-2.74 4.73 4.73 0 0 1 6 0A3.69 3.69 0 0 1 195.68 8a3.67 3.67 0 0 1-1.12 2.72 4.73 4.73 0 0 1-6 0A3.67 3.67 0 0 1 187.42 8zm7.85 7.14v27.5h-7.4V15.1zm19.17 27.33a13.49 13.49 0 0 1-4.44.69 8.36 8.36 0 0 1-5.75-1.89Q202.1 39.4 202.1 35V20.46h-4.06V15.1h4.06V8.3h7.36v6.8h4.7v5.37h-4.7v13.78a2.88 2.88 0 0 0 .71 2.3 3.42 3.42 0 0 0 2.12.56 11.12 11.12 0 0 0 1.21-.07c.36 0 .67-.1.93-.14zm26.56-4.3a12.24 12.24 0 0 1-4 3.43 13.3 13.3 0 0 1-6.73 1.56q-6.45 0-10.06-3.9a13.41 13.41 0 0 1-3.62-9.44v-1a15 15 0 0 1 3.48-10.24 11.8 11.8 0 0 1 9.39-4q5.93 0 9 3.72 3.07 3.72 3.1 9.83v3.13h-17.5a7.14 7.14 0 0 0 2.12 4.32 6.32 6.32 0 0 0 4.56 1.64 8 8 0 0 0 6.65-3.08zM229.42 20.5a4.38 4.38 0 0 0-3.61 1.58 8.48 8.48 0 0 0-1.66 4.13h10.24v-.56a5.84 5.84 0 0 0-1.23-3.66 4.52 4.52 0 0 0-3.74-1.49zm32.72 22.15l-.35-2.93a9.45 9.45 0 0 1-3 2.52 8.57 8.57 0 0 1-4 .92 9.21 9.21 0 0 1-7.95-4 16.79 16.79 0 0 1-2.82-10v-.54q0-6.28 2.82-10.2a9.32 9.32 0 0 1 8-3.89 8.4 8.4 0 0 1 6.63 3v-14h7.38v39.1zm-10.8-13.45a12.44 12.44 0 0 0 1.17 5.64 4.18 4.18 0 0 0 4.08 2.33 5 5 0 0 0 4.82-2.85V23.4a4.91 4.91 0 0 0-4.77-2.85 4.23 4.23 0 0 0-4.09 2.35 12.62 12.62 0 0 0-1.21 5.77zm-95.4 20.7V87h-7.64l-14.88-24.45V87h-7.67V49.9h7.67l14.88 24.45V49.9zm21.5 37.1a9.82 9.82 0 0 1-.74-2.47 9.64 9.64 0 0 1-2.79 2.1 8.93 8.93 0 0 1-4.17.88 9.85 9.85 0 0 1-6.65-2.33 7.49 7.49 0 0 1-2.7-5.92 7.88 7.88 0 0 1 3.21-6.72c2.14-1.58 5.3-2.38 9.5-2.38h3.28v-1.6a4.52 4.52 0 0 0-1-3.05 3.9 3.9 0 0 0-3.09-1.13c-2.64 0-3.95 1.1-3.95 3.3H161a7.77 7.77 0 0 1 3.19-6.18 13.15 13.15 0 0 1 8.53-2.58 12.53 12.53 0 0 1 7.91 2.42q3.15 2.4 3.15 7.26v11.64a20.49 20.49 0 0 0 .28 3.8 9.79 9.79 0 0 0 .81 2.5V87zm-6.1-5.12a5.85 5.85 0 0 0 3.17-.83 5.36 5.36 0 0 0 1.87-1.82v-4.8h-3a6.17 6.17 0 0 0-4.28 1.24 4 4 0 0 0-1.35 3 3 3 0 0 0 .95 2.34 3.75 3.75 0 0 0 2.64.86zm31.22 4.92a13.28 13.28 0 0 1-2 .5 13.78 13.78 0 0 1-2.43.19 8.4 8.4 0 0 1-5.76-1.89c-1.42-1.25-2.14-3.34-2.14-6.26V64.8h-4.05v-5.37h4.05v-6.8h7.37v6.8h4.68v5.37h-4.68v13.78a2.84 2.84 0 0 0 .71 2.3 3.38 3.38 0 0 0 2.11.56 8.87 8.87 0 0 0 1.21-.07c.37 0 .68-.1.93-.14zm3.1-34.52a3.66 3.66 0 0 1 1.12-2.74 4.72 4.72 0 0 1 6 0 3.89 3.89 0 0 1 0 5.46 4.72 4.72 0 0 1-6 0 3.63 3.63 0 0 1-1.12-2.72zm7.84 7.14V87h-7.4V59.42zm4.2 14.06v-.54a14.9 14.9 0 0 1 3.41-10q3.4-4 9.63-4 6.23 0 9.68 4a15 15 0 0 1 3.39 10v.54a15 15 0 0 1-3.39 10q-3.4 4-9.63 4-6.24 0-9.68-4a14.86 14.86 0 0 1-3.41-10zm7.38-.54v.54a11.76 11.76 0 0 0 1.29 5.72 5.28 5.28 0 0 0 8.79 0 11.76 11.76 0 0 0 1.29-5.72v-.54a11.86 11.86 0 0 0-1.29-5.69 4.59 4.59 0 0 0-4.42-2.41 4.54 4.54 0 0 0-4.38 2.41 12 12 0 0 0-1.28 5.69zm34.5-8.07a5 5 0 0 0-4.66 2.65V87h-7.36V59.42h6.9l.26 3.16a9.64 9.64 0 0 1 7.92-3.67 8.67 8.67 0 0 1 6.37 2.34q2.4 2.34 2.4 8.18V87H264V69.4c0-1.76-.38-3-1.13-3.6a5 5 0 0 0-3.3-.94zm31.57 14.47a2.41 2.41 0 0 0-1.08-2 13.4 13.4 0 0 0-4.55-1.54 18.77 18.77 0 0 1-7-2.84 6.33 6.33 0 0 1-2.79-5.51 7.75 7.75 0 0 1 2.91-6c1.95-1.7 4.63-2.56 8.07-2.56s6.4.84 8.45 2.52a7.87 7.87 0 0 1 3.09 6.37h-7.37a3.61 3.61 0 0 0-1-2.63 4.28 4.28 0 0 0-3.18-1 4.38 4.38 0 0 0-2.87.85 2.68 2.68 0 0 0-1 2.13 2.28 2.28 0 0 0 1.14 2 11.76 11.76 0 0 0 4 1.33 22.28 22.28 0 0 1 7.44 2.72q3 1.83 2.95 5.94a7.31 7.31 0 0 1-3.13 6q-3.14 2.4-8.46 2.4-5.77 0-8.84-3a8.78 8.78 0 0 1-3.06-6.33h7a3.63 3.63 0 0 0 1.59 3.11 6.33 6.33 0 0 0 3.45.94c2.82.01 4.24-.96 4.24-2.9z" fill="#fff"/></svg>