<?xml version="1.0" encoding="utf-8"?>
<!-- Generator: Adobe Illustrator 23.0.1, SVG Export Plug-In . SVG Version: 6.00 Build 0)  -->
<svg version="1.1" id="Layer_1" xmlns="http://www.w3.org/2000/svg" xmlns:xlink="http://www.w3.org/1999/xlink" x="0px" y="0px"
	 viewBox="0 0 109 91.4" style="enable-background:new 0 0 109 91.4;" xml:space="preserve">
<style type="text/css">
	.st0{fill:#009EDB;}
</style>
<g>
	<g>
		<g>
			<g>
				<path class="st0" d="M86.4,83.2c-2.9,1.4-6.1,1.8-9.3,1.1c-2.2-0.5-4.2-1.2-6.2-2.1l-4.4-1.8c-3.8-1.2-7.9-1.3-11.8-0.3h-0.4
					c-3.9-1.1-8-1-11.8,0.3c-1.5,0.5-2.9,1.2-4.4,1.8c-2,0.9-4.1,1.7-6.2,2.2c-3.1,0.7-6.4,0.3-9.3-1.1l-0.4-0.2
					c-0.1,0-0.1,0-0.1,0.1c1.9,2,4.4,3.4,7,4.1c1.8,0.5,3.7,0.6,5.5,0.4c2.8-0.4,5.5-1.4,7.8-3l4.2-2.8c1.6-1,3.5-1.4,5.3-1
					c1,0.1,0.2,0.6,0.1,0.7c-2.5,1.2-4.9,2.7-7.1,4.4c-1.5,1.1-4.2,3.7-4.2,3.7l2,1.7l2.2-2.4c2.7-2.8,5.8-5.2,9.2-7.1
					c0.3-0.2,0.6-0.2,0.9,0c3.4,1.9,6.5,4.3,9.2,7.1l2.2,2.4l2-1.7L64.2,86c-2.2-1.7-4.6-3.2-7.1-4.4c-0.2-0.1-0.9-0.6,0.1-0.7
					c1.8-0.4,3.7,0,5.3,1l4.2,2.8c2.3,1.6,5,2.6,7.8,3c1.8,0.2,3.7,0.1,5.5-0.4c2.6-0.8,5.1-2.2,7-4.1c0,0-0.1-0.1-0.2-0.1
					L86.4,83.2 M96.2,74.5c-1.3,1-2.7,1.7-4.2,2.2c-2.1,0.6-4.4,1-6.6,1c-2.9,0.1-5.7,0.3-8.6,0.7c-0.2,0-0.3,0-0.2-0.1
					c2.5-1,4.5-3,5.6-5.4l2.8-5.7c0-0.1,0-0.1,0-0.2c-0.2,0.1-3,2.5-4.3,3.7L76,75.3c-2.1,1.8-4.6,3.1-7.3,3.8h-0.1l-0.1,0.1
					l5.4,1.3c2.3,0.7,4.7,1.1,7.1,1.3c6.1,0.6,12-2.2,15.4-7.2C96.4,74.5,96.3,74.5,96.2,74.5 M105,61.1c-1.4,1.7-3.1,3.2-5,4.4
					c-1.6,1.1-3.3,2-5.1,2.8c-2.3,0.9-4.4,2.2-6.3,3.7l-0.4,0.3c-0.1,0-0.1,0-0.1-0.1s3-3.1,3.9-9.4c0.1-2.3,0.5-4.5,1-6.7
					c0-0.1,0-0.1,0-0.2c-2.1,2.6-3.7,5.5-4.8,8.6l-1.8,5.1c-0.7,2.3-2,4.4-3.7,6.1l-0.2,0.2V76c0.2,0,0.4-0.1,0.6-0.1l5.8-1.2
					c3.2-0.5,6.2-1.8,8.8-3.7c2.7-1.9,4.8-4.5,6.3-7.4C104.4,62.8,104.7,62,105,61.1C105.2,61,105.1,61,105,61.1 M108.8,46.1
					c-0.9,2.7-2.5,5.2-4.6,7.2c-2.4,2.3-4.6,4.9-6.6,7.5c0,0.1-0.2,0-0.1-0.1c0.8-2.7,1-5.6,0.6-8.5c-0.4-2.4-1.4-5-1.7-7.9
					l-0.1-0.1c0,0.1-0.1,0.2-0.1,0.3c-0.6,1.9-1,3.8-1.2,5.8c-0.1,2.4,0.3,5.5,0.1,7.9c-0.2,2.8-0.4,5.7-1.7,8.2c0,0.1,0,0.1,0,0.2
					l6-3.7c2.5-1.6,4.6-3.6,6.3-6c2.2-3.1,3.3-6.7,3.3-10.5c0-0.1,0-0.3,0-0.4C108.9,46,108.8,46.1,108.8,46.1"/>
				<path class="st0" d="M102.4,47.7C102.5,47.7,102.5,47.7,102.4,47.7C102.4,47.8,102.4,47.7,102.4,47.7c0-0.8,0-1.6-0.1-2.4
					c-0.2-2.8-1.9-5.1-3.4-7.5c-1-1.5-1.9-3.1-2.7-4.8c0,0-0.1-0.1-0.2-0.1c0,0.2,0,1.1,0.1,1.6c0.5,4,1.5,8,3,11.8
					c0.9,2.4,1.2,4.9,1,7.4c0,0.2,0,0.2,0.1,0.3c0.9-1.3,2.7-3.1,3.8-4.5s7.1-8.2,4.2-17.6c-0.1-0.4-0.3-0.8-0.5-1.2l-0.1,0.1
					c0,6.8-3.3,9.7-4.6,14.3C102.7,46.2,102.5,47,102.4,47.7 M102.5,33.7l-0.6-1.6l-0.4-0.9c-1-1.8-2.4-3.4-4.1-4.6
					c-1.4-1.2-2.6-2.5-3.6-4c0,0-0.1,0-0.2,0h-0.1c0.1,0.3,1,3.3,1.6,4.7c1,1.9,2.2,3.8,3.6,5.4l0.3,0.4c1.7,2.3,3,4.8,3.9,7.5
					c0,0.1,0.1,0.1,0.1,0.1l1.7-5.2c0.6-1.8,1.1-3.7,1.5-5.6c0.6-4.5-0.8-10.2-3.4-13.4c0,0-0.1,0.1-0.1,0.2l0.1,0.4l0.2,0.6
					c0.5,2.4,0.6,5,0.1,7.4c-0.4,1.9-0.5,3.9-0.5,5.9c0,0.3,0.2,2.8,0.2,2.9s-0.1,0-0.2,0 M94.5,8.6c0.8,0.8,1.5,1.7,1.9,2.8
					c0.7,1.7,0.9,4.2,1.4,6.1l0.9,3.3c0,0.1-0.1,0.2-0.2,0.1c-1.5-1.8-3.3-3.3-5.4-4.5c-1.4-0.8-2.5-1.9-3.5-3.1l-0.5-0.7
					c0,0-0.1-0.1-0.2,0c0,0.1,0,0.2,0,0.3c0.5,2.2,1.5,4.3,3.1,6c1.3,1.2,2.7,2.3,4,3.4c1.7,1.4,3.3,3.1,4.8,4.8c0,0,0.1,0.1,0.1,0
					v-1.6l0.1-4.8v-1.6c0-1.6-0.3-3.3-0.9-4.8c-1-2.5-2.9-4.5-5.2-5.7c-0.1-0.1-0.3-0.1-0.5-0.2C94.4,8.4,94.4,8.5,94.5,8.6
					 M84.2,3.9c1.4,1.3,2.6,2.8,3.7,4.4c1,1.6,2.1,3,3.5,4.3c0.9,0.9,3.6,3,4.3,3.6c-0.1-0.8-1.4-6.5-4.9-9.3
					c-2-1.6-4.4-2.8-6.9-3.4c0,0.1,0,0.1,0,0.2L84.2,3.9 M28.2,81.8c2.3-0.2,4.7-0.6,6.9-1.3l5.4-1.3h0.1c0,0,0-0.1-0.1-0.1h-0.1
					c-2.7-0.7-5.2-2-7.4-3.8l-4.7-4.5L24,67.1v0.2c0.4,0.6,1.9,3.9,2.8,5.7c1.1,2.5,3.1,4.4,5.6,5.4c0.1,0.1,0,0.1-0.2,0.1
					c-2.8-0.4-5.7-0.6-8.6-0.7c-2.2,0-4.5-0.4-6.6-1c-1.5-0.5-2.9-1.2-4.2-2.2c-0.1,0-0.1,0-0.2,0c2,2.8,4.8,5,8,6.2
					C23.1,81.6,25.6,81.9,28.2,81.8 M25.9,75.9c0.2,0,0.3,0.1,0.6,0.1v-0.1l-0.2-0.2c-1.7-1.7-2.9-3.8-3.7-6.1l-1.8-5.1
					c-1.1-3.1-2.7-6-4.8-8.6c0,0.1,0,0.1,0,0.2c0.6,2.2,0.9,4.4,1.1,6.7C18,69,21,72,21,72.1s0,0.2-0.1,0.1l-0.4-0.3
					c-1.9-1.5-4-2.8-6.3-3.7c-1.8-0.8-3.5-1.7-5.1-2.8c-1.9-1.2-3.6-2.7-5-4.4H4c0.3,0.8,0.6,1.6,1,2.4c1.5,2.9,3.7,5.5,6.4,7.4
					c2.6,2,5.6,3.3,8.8,3.7C22.1,75,24,75.5,25.9,75.9 M9.8,62.9l6,3.7c0,0,0.1-0.1,0.1-0.2c-1.3-2.6-1.5-5.4-1.7-8.2
					c-0.2-2.5,0.2-5.5,0.1-7.9c-0.2-2-0.6-4-1.2-5.9c0-0.1-0.1-0.2-0.1-0.3l-0.1,0.1l0,0c-0.2,2.9-1.3,5.5-1.7,7.9
					c-0.4,2.8-0.2,5.7,0.6,8.5c0.1,0.1-0.1,0.2-0.1,0.1c-2-2.7-4.2-5.2-6.6-7.5c-2.1-2-3.7-4.4-4.6-7.1c0,0-0.1-0.1-0.2-0.1
					s0,0.2,0,0.4c0,3.7,1.1,7.4,3.3,10.5C5.2,59.2,7.3,61.3,9.8,62.9 M8.7,54.1C8.8,54,8.8,54,8.8,53.8c-0.2-2.5,0.1-5.1,1.1-7.4
					c1.4-3.8,2.4-7.7,3-11.8c0-0.5,0.1-1.4,0.1-1.6c-0.1,0-0.1,0-0.1,0.1c-0.8,1.7-1.7,3.3-2.7,4.8c-1.6,2.2-3.2,4.6-3.4,7.4
					c-0.1,0.8-0.1,1.6,0,2.4c0,0,0,0.1-0.1,0.1c0,0,0,0,0-0.1L6,45.3C4.6,40.7,1.4,37.8,1.4,31l-0.1-0.1c-0.2,0.4-0.3,0.8-0.5,1.2
					c-2.9,9.4,3,16.2,4.2,17.6S7.8,52.8,8.7,54.1 M4.5,35.4l1.7,5.2c0,0,0.1,0,0.1-0.1c0.9-2.7,2.3-5.2,3.9-7.5l0.3-0.4
					c1.4-1.7,2.6-3.5,3.6-5.4c0.6-1.4,1.5-4.4,1.6-4.7h-0.1c-0.1,0-0.1,0-0.2,0c-1,1.5-2.2,2.8-3.6,4c-1.7,1.2-3.2,2.8-4.2,4.7
					c-0.1,0.3-0.3,0.6-0.4,0.9l-0.6,1.7c0,0-0.1,0.2-0.1,0s0.2-2.5,0.2-2.9c0-2-0.2-4-0.6-5.9c-0.5-2.5-0.4-5,0.1-7.4
					c0-0.2,0.1-0.4,0.2-0.6c0-0.1,0.1-0.3,0.1-0.4s0-0.1-0.1-0.2c-2.6,3.2-4.1,9-3.5,13.4C3.4,31.7,3.9,33.6,4.5,35.4 M8.1,20.8
					l0.1,4.8l0,1.5h0.1c1.4-1.8,3-3.4,4.7-4.9l4-3.4c1.6-1.7,2.6-3.8,3.1-6c0-0.1,0-0.2,0-0.3H20l-0.5,0.7c-0.9,1.2-2.1,2.3-3.4,3.1
					c-2.4,1.5-4,2.6-5.4,4.5c-0.1,0.1-0.2,0.1-0.1-0.1l0.9-3.3c0.5-1.9,0.7-4.4,1.4-6.1c0.4-1,1.1-2,1.9-2.8c0-0.1,0-0.1,0-0.2
					c-0.2,0-0.3,0.1-0.5,0.2C11.8,9.8,10,11.9,9,14.3c-0.6,1.5-1,3.1-0.9,4.8V20.8 M13.4,16.1L13.4,16.1l4.4-3.6
					c1.3-1.3,2.5-2.7,3.5-4.3s2.3-3.1,3.7-4.4l0.3-0.3c0-0.1,0-0.1,0-0.2c-2.5,0.6-4.9,1.7-6.9,3.4C14.7,9.6,13.5,15.3,13.4,16.1
					 M53.6,47.1c0.3-0.4-0.4-0.7-0.6,0S53.3,47.6,53.6,47.1 M61.2,29.5c-0.3-0.1-1.4,1.2-1.2,1.4C60.5,30.6,60.9,30.1,61.2,29.5
					 M61.4,29.3c0.2,0.1,0.9-0.3,0.8-0.4s-1-0.5-1-0.3C61.2,29,61.3,29.2,61.4,29.3 M74.9,41.7c0.4-0.1,0.3-0.7,0-0.7
					s-0.7,0.5-0.6,0.5S74.7,41.8,74.9,41.7 M70,28.4c-0.3,0-0.4,0.3-0.1,0.5c0.3,0.1,0.5,0,0.7-0.1s0.4-0.3,0.4-0.6
					s-0.4-0.7-0.2-0.9s0.5,0.1,0.7,0s0.3-0.3,0.3-0.5S71.7,26,71.3,26s-0.8,0.8-0.8,0.8c-0.1,0.2-0.1,0.5,0,0.7
					C70.6,27.9,70.5,28.4,70,28.4"/>
				<path class="st0" d="M76.6,28.5c0,0.2,0.5,1.5,0.6,1.8s0.2,1.4,0.4,1.3s0.2-0.7,0.1-1c-0.1-0.7-0.3-1.5-0.5-2.1
					c-0.1-0.4-0.8-1.9-1-1.8s0.3,1,0.4,1.4S76.5,28.3,76.6,28.5 M73.1,11.5c0.3,0.1,0.3-0.5-0.2-0.9s-1.3-0.2-1.1,0
					C72.2,10.9,72.6,11.3,73.1,11.5 M58.1,7.2c-0.7-0.4-0.1-1-0.6-1.4c-0.6-0.2-1.2-0.1-1.6,0.3c-0.5,0.6,0.6,0.4,0.9,0.6
					s1.3,0.9,1.4,0.8C58.3,7.4,58.2,7.2,58.1,7.2 M62.1,5.2c-0.9-0.4-4.2-0.4-4.1,0.5c0.1,0.9,1.9,0,2.4,0S62.9,5.6,62.1,5.2
					 M53,43.8c-0.2-0.1-0.5,0.1-0.6-0.1s-0.3-0.1-0.3,0S52,44,52.2,44.2c0.2,0.2,0.6,0.2,0.8,0C53.1,44.1,53.1,43.9,53,43.8
					 M51.1,37.1c0.3,0,0.3-0.2,0.4-0.2s0,0.2,0.3,0.2s0.6-0.7-0.3-0.7C50.8,36.4,50.9,37.1,51.1,37.1 M52.3,37.9
					c-0.5-0.1-0.4,0.2-0.8,0.2c-0.6,0.1-0.1-0.4-0.3-0.6c-0.1-0.1-0.4,0.4-0.5,0.7c0,0.2,0,0.6,0.2,0.7l1.9,0.2
					C53.2,39.1,52.8,38,52.3,37.9 M46.1,44.4c0.2,0,0.3-0.6,0.2-0.9s-0.7-0.1-0.7,0.1S46,44.4,46.1,44.4 M38.1,44.4
					c0-0.2,0-1-0.2-1.2s-0.2,0.1-0.3,0.1s-0.1-0.4-0.2-0.4s0,0.6,0.2,1S38.1,44.9,38.1,44.4 M37.9,42.6c0.2-0.6,0.3-1.2,0.3-1.8
					c0-0.5-0.3-0.9-0.4-0.9s0,0.3,0.1,0.8c0,0.5-0.2,1-0.3,1.5C37.6,42.3,37.8,42.8,37.9,42.6"/>
				<path class="st0" d="M27.7,65c14.9,14.9,38.9,14.9,53.8,0s14.9-38.9,0-53.8s-38.9-14.9-53.8,0S12.8,50.2,27.7,65 M18.2,38.9H24
					c0.1,3,0.6,5.9,1.5,8.7c-0.3-0.1-0.6-0.2-0.9-0.4c-0.4-0.2-0.7,0.1-0.8,0.1c-0.4,0-0.9-0.3-0.9,0s0.4,0.1,0.4,0.3
					s-1,0.2-1.1-0.2s-0.3-0.8-0.4-0.3s-0.5,0.4-0.7,0.5c-0.1,0.1-0.2,0.3-0.2,0.5s-0.5,0.1-0.5,0.4s0.3,0.4,0.4,0.7s0.4,0.5,0.2,0.6
					s-0.1-0.1-0.3,0s0.9,3.1,1.1,3s-0.3-1-0.3-1.4s0.1-0.5,0.4-0.7s1.1,1.2,1.4,1s-0.1-0.4,0.2-0.5s1.2,1.3,1.5,0.9
					c0.2-0.3,0.4,0.2,0.4,0.3c0.3,0.5,0.8,0.5,1.1,1.1s1,1.7,1.5,1.7s0.2-0.5,0.4-0.5s0.4,0.7,0.7,1.1c0.2,0.3,0.5,0.5,0.9,0.6
					c0.7,0.9,1.5,1.8,2.3,2.7l-4.1,4.1C21.9,56.8,18.3,48.1,18.2,38.9 M51.3,30.6l-0.4,0.2c-0.6,0.3-1.1,0.6-1.5,1l-4.1-4.1
					c2.4-2.1,5.4-3.4,8.5-3.5V30c-0.7,0.1-1.4,0.2-2.1,0.5c0.2-0.4,0.6-0.8,0.6-0.8S51.6,30.1,51.3,30.6 M48.2,40.1
					C48.2,40.1,48.2,40.2,48.2,40.1c0,0.1,0,0.2,0,0.2c0-0.2-0.1-0.3-0.2-0.5c-0.1-0.1-0.2-0.2-0.3-0.2s-0.2,0-0.3,0h-0.2L47,39.7
					h-1.4c-0.2,0-0.3,0-0.3-0.1c-0.1-0.4,0.5-0.1,0.9-1.3c0.1-0.1,0.1-0.3,0.2-0.4l0.1-0.2l0.1-0.1l0.1-0.1c0.2-0.2,0.4-0.2,0.6-0.2
					h0.2l0.2,0.2l0.3,0.6c0.1,0.1,0.2,0.1,0.2,0.2c0.2,0.1,0.3,0.2,0.4,0.3l0.1,0.1v0.1c0.1,0.1,0.1,0.1,0.2,0.1H49
					c0.1,0,0.1,0,0.2,0h0.1c0.2-0.1,0.2,0,0.3,0V39c0,0.1,0,0.1-0.1,0.2c0,0.1-0.1,0.1-0.1,0.2c-0.1,0.1-0.2,0.2-0.3,0.2
					c-0.2,0-0.4-0.1-0.5-0.1s-0.2,0-0.2,0.1v0.5 M37.4,49.7c-0.3-0.5-0.4-1.2-0.4-1.8s-0.2-1.2-0.5-1.7c-0.1-0.4-0.2-0.8-0.2-1.2
					c0-0.7-0.6-0.5-0.6-0.7s0.5,0,0.5-0.2s-0.6-1-1.1-1.2s-0.3-0.5-0.3-0.8s0-0.6-0.2-0.8c-0.1-0.4,0-1.1,0.5-1.1
					c0.2,0,0.5,0.2,0.8,0s0.1-0.8,0.1-1.3h2.8c0,0.4,0.1,0.9,0.1,1.3c-0.2,0.1-0.3,0.3-0.2,0.4c0.1,0.1,0.2,0.2,0.3,0.1
					c0.5,2.9,1.8,5.6,3.8,7.8l-4.1,4.1c-0.3-0.3-0.6-0.7-0.9-1.1c0-0.1,0-0.2,0-0.3c0-0.7-0.5-1.1-0.7-1.7 M33.5,42.7
					c-0.3-1.2-0.4-2.5-0.5-3.8h2.4c-0.2,0.3-0.7,0.6-0.8,0.9s-0.7,1.3-0.3,1.7C35.2,42.5,34.1,42.9,33.5,42.7 M34,57.5L33.5,58
					c-0.2-0.2-0.5-0.5-0.7-0.7C33.2,57.1,33.6,57.2,34,57.5 M40.2,31.8c-0.1,0-0.1,0.1-0.2,0.1c-0.3,0.3-1.1,0.2-1,0.5
					s2.2-0.7,2.2-0.5s-0.9,0.5-1.5,0.8s-0.8,0.8-1.8,0.8c-0.5,0-0.7,0.4-0.9,0.7c-0.3,0.4-0.5,0.8-0.7,1.2c0,0.6-0.1,1.2-0.4,1.8H33
					c0.2-5.1,2.2-10,5.7-13.8l4.1,4.1C41.8,28.9,40.9,30.3,40.2,31.8 M44,28.8l3.6,3.6c-0.1,0-0.2,0-0.4,0c-0.4,0-0.4-0.3-0.7-0.3
					c-0.6,0.1-0.7,0.3-0.8,0.2c-0.4-0.4-0.9-0.7-1.5-1c-0.7-0.2-1.4-0.2-2,0.1c-0.1,0-0.1,0.1-0.2,0.1C42.7,30.6,43.4,29.7,44,28.8
					 M39,36.1c0,0.4-0.1,0.8-0.1,1.2h-2.1c-0.1-0.3,0-0.6,0.2-0.9c0.2-0.4,0.7-0.6,1.2-0.5C38.4,35.9,38.7,36,39,36.1 M40.8,40.8
					l0.2,0.3c0.2,0.2,0.4,0.4,0.6,0.3s0.7,0,0.8,0c0.3,0.1,0.5,0.3,0.7,0.5c0.2,0.3,0.6,0.1,0.9,0.3s0.6,0.4,0.2,0.6
					s0.4,0.6,0.5,0.6s0.2-0.2,0.2-0.5c0-0.1,0.2-0.5,0.5-0.4s1.2,1.2,1.5,0.8s0.1-0.9,0.2-1.1c0-0.1,0.1-0.2,0.2-0.2
					c0.3,0.5,0.5,0.9,0.9,1.3l-4.1,4.1C42.4,45.6,41.2,43.3,40.8,40.8 M44,26.5l-4-4.1c3.8-3.5,8.7-5.5,13.8-5.7v5.8
					C50.2,22.6,46.8,24,44,26.5 M38.8,21.2l-4.1-4.1c5.2-4.9,12-7.7,19.1-7.9V15C48.2,15.2,42.8,17.4,38.8,21.2 M37.6,22.3
					c-3.8,4.1-6,9.4-6.2,15h-5.8c0.2-7.1,3-13.9,7.9-19.1L37.6,22.3z M31.4,38.9c0,1.1,0.1,2.1,0.3,3.2c-0.1,0-0.1-0.3-0.4-0.2
					s-1.4,2-1.9,2.8c-0.4,0.7,0.2,2.2-0.4,2.7c-0.6,0.2-1.2,0.3-1.8,0.3h-0.1c-1-2.8-1.5-5.7-1.6-8.6L31.4,38.9z M53.7,74.5
					c-9.1-0.2-17.8-3.8-24.3-10.1l4.1-4.1c5.5,5.2,12.7,8.2,20.2,8.4V74.5z M53.7,67.1c-7.1-0.2-13.9-3-19.1-7.9l0.7-0.7
					c0.1,0.1,0.3,0.2,0.5,0.3c0.4,0.2,0.9,0.3,1.4,0.2c0.4-0.1,1.2-0.8,1.7-0.8s1.3,0.2,1.8-0.1s-0.3-1.3-0.6-1.8
					C40,56.2,40,56.1,39.9,56c3.9,3.3,8.9,5.2,14,5.3L53.7,67.1z M53.7,59.6c-5.1-0.2-10-2.2-13.8-5.7l4.1-4.1
					c1.9,1.7,4.2,3,6.8,3.6c-0.9,0.4-1.3,1-1.2,1.5S49,55.7,49,56.3s0.8,1,0.9,1.6c0.1,0.3,0.8,0.8,1.4,1.2c0.8,0.2,1.6,0.3,2.3,0.2
					L53.7,59.6z M53.5,51.6c-0.3-0.2-0.5,0.2-0.9,0.4c-2.8-0.4-5.3-1.6-7.4-3.4l4.1-4.1c1.3,1,2.8,1.7,4.4,1.8
					c0,0.2,0.2,0.4,0.2,0.8s-0.3,0.6-0.2,0.8s1,0,1.1-0.3s-0.3-0.5-0.4-0.8c-0.1-0.2-0.1-0.3-0.2-0.5h0.3c0.3,0,0.6,0,0.9-0.1
					c0.1,0,0.2-0.1,0.2-0.2c0-0.1,0.1-0.2,0.1-0.3s0.1-0.1,0.1-0.2l0,0l0.1,0.1c0.1,0.2,0.3,0.8,0.5,0.7s0.3-1,0.2-1.2
					c-0.2-0.3-0.2-0.6,0-0.9c0-0.1,0.1-0.7,0.3-0.6s0,0.6,0,0.8c0,0.3,0.2,0.7,0.5,0.5c0.2-0.1,0.4-0.4,0.6-0.3s-0.5,0.3-0.6,0.5
					s0.3,0.3,0.2,0.4s-0.2,0-0.3,0.1s0.2,0.7,0,0.8s-0.9,0.3-1.1,0.4s-0.4-0.1-0.3-0.2s0-0.5-0.2-0.5s-0.2,0.1-0.2,0.3
					s0.2,0.5,0.2,0.6s-0.3,0.2-0.5,0.3c-0.2,0.3-0.5,0.6-0.8,0.8s-0.9,0.2-0.9,0.4s0.3,0.2,0.4,0.3c0.2,0.3,0.3,0.7-0.1,0.9
					s-0.9-0.3-1.1-0.2s-0.3,0.6-0.4,1.2s1.1,0.8,1.7,0.5c0.4-0.2,0.3-0.8,0.7-1s0.3-0.6,0.7-0.5s0.3-0.3,0.7-0.3s0.4,0.3,0.9,0.4
					c0.8,0.2,0.8,0.8,0.9,0.5s0.2-0.5-0.4-0.7s-0.9-0.9-0.4-0.7c0.6,0.3,1.1,0.3,1.2,0.6s0.7,0.2,0.8,0.5c0.1,0.5,0.5,0,0.2-0.3
					s-0.2-0.4,0-0.6s0.3,0.1,0.6-0.3s-0.1-0.3-0.2-0.5s0-1.3,0.4-1.1s0.8-0.1,0.6-0.2s0.1-0.7,0.2-0.7s0,0.4,0.1,0.5
					s1.1-0.3,1.2,0.2s-0.7,0.8-0.9,0.8c-0.4,0-0.7,0.4-1,0.8s-0.6,0.5-0.4,0.9s0.6,0.3,1,0.1s0.7-0.5,0.9-0.6c0.4-0.2,0.7,1,0.5,1.2
					s-0.6,0.3-0.8,0.5c-0.6,0.3-1.2,0.6-1.9,0.6c-0.4,0.1-0.4,0.2-0.5,0.6S57.2,52,56.8,52s0.3-0.9-0.3-0.8s-1.2,0.2-1.8,0.3
					C54.6,51.5,54,52,53.5,51.6 M58.8,60.9c0.5,0.2,1,0.6,1.3,1c0.3,0.5,0.4,0.7,0.2,1.2C59.8,64,60,64.6,61,64.9
					c0.6,0.2,0.8,0.8,1.2,1.2c-2.2,0.6-4.5,0.9-6.8,1v-5.8C56.5,61.2,57.7,61.1,58.8,60.9 M55.4,59.7V59c1.3-0.2,1,0.6,1.9,0.3
					c0.3-0.1,0.6,0,0.8,0.2C57.2,59.5,56.3,59.6,55.4,59.7 M55.4,74.6v-5.9c3-0.1,6-0.6,8.9-1.6c0.1,0.1,0.2,0.1,0.3,0.1
					c0.4,0,0.8-0.2,1.1-0.4c1-0.4,1.9-0.9,2.7-1.5c2.6-1.3,5.1-3.1,7.2-5.1l4.1,4.1C73.2,70.7,64.5,74.3,55.4,74.6 M71.6,22.3
					l1.4-1.4c0.4,0.4,0.8,0.7,1.4,0.8c0.5,0.1,0.7,0.3,0.8,0.8s0.6,0.7,1.1,0.8s0.8,0.7,1.2,0.7s1.7,1.8,2.2,2.4
					c0.3,0.3,0.7,0.8,1,0.4s0.3-0.3,0.5-0.4c1.5,3.4,2.4,7.2,2.5,10.9h-5.8c0-1.3-0.2-2.6-0.5-3.9c0.2-0.4,0.3-0.8,0.3-1.3
					c0-0.4-0.4-0.6-0.7-0.3c-0.2-0.8-0.5-1.5-0.8-2.2c-0.1-0.4-0.2-0.9-0.3-1.3c0-0.1-0.2-0.2-0.4-0.4c-0.2-0.4-0.3-0.7-0.5-1
					c0.3-0.2,0.4-0.7,0-0.6c-0.6,0.1-0.2-0.3-0.4-0.5s-0.2,0-0.3,0.1c-0.8-1.2-1.6-2.3-2.6-3.4C71.7,22.5,71.7,22.5,71.6,22.3
					C71.5,22.4,71.5,22.3,71.6,22.3 M75.1,56.2c-0.2-0.4-0.3-0.9-0.5-1.3c-0.1-0.4-0.9-0.4-0.9-0.2c0,0.4,0,0.8-0.1,1.2V56l-2.1-2.1
					c3.8-4.1,6-9.4,6.2-15h5.8c-0.2,7.1-3,13.9-7.9,19l-0.3-0.3C75.4,57.2,75.3,56.7,75.1,56.2 M70.3,60.2c0.3-0.5,0.9-1.4,1.2-1.9
					s-0.8-1.2-1.4-1.4s-0.6-0.5-0.6-1c0.3-0.2,0.6-0.5,0.9-0.8l4.1,4.1c-1.4,1.3-2.8,2.4-4.4,3.4c-0.1-0.2,0.6-0.9,0.8-1.2
					S70.1,60.7,70.3,60.2 M72.8,36.3c-0.5-0.7,0.2-0.8,0.9-1.1c0.4-0.2,0.9,0.1,0.9-0.1s0.2-0.6,0.4-0.7c0.2-0.1,0.5-0.3,0.6-0.5
					c0,0.2,0.1,0.4,0.1,0.6c-0.2,0.4-0.3,0.7-0.3,1.1c0,0.3,0,0.7,0.3,0c0-0.1,0.1-0.1,0.1-0.2c0.2,0.7,0.2,1.3,0.2,1.9h-4.3
					c0,0,0,0,0-0.1C72,36.7,73.1,36.8,72.8,36.3 M73.6,28.1c0,0,0,0.1-0.1,0.1c-0.1,0.1-0.6-0.7-0.6-0.1s0.2,0.8,0.6,0.9
					s0.2,0.3,0.5,0.4c0.1,0,0.3,0.1,0.4,0.2c0.5,1.1,0.8,2.2,1.1,3.4c-0.2,0.1-0.3,0.2-0.4,0.3c-0.2,0.2-0.1,0.6-0.3,0.9
					c-0.3,0.5-0.4,0.8-1.2,0.6c-0.5-0.2-0.1-0.8,0-1.3s0.3-0.4,0.3-0.7s-1-1.4-1.5-1c-0.5,0.4-0.4,0.8-0.8,1.2
					c-0.2,0.2-0.4,0.2-0.7,0s-0.4-0.4-0.3-0.6s-0.7-1.1-1-1.5c-0.4-0.5-1-0.8-1.6-0.8c-0.5-0.9-1.2-1.8-1.9-2.6l4.1-4.1
					C71.6,24.9,72.7,26.4,73.6,28.1 M66.7,30.9l-0.2,0.3c-0.1,0.2-0.6-0.2-0.7-0.1s0.7,1.1-0.1,0.8s-0.3-0.3-0.3-0.6
					s-0.7-0.5-0.3-0.7s0-0.5,0.4-0.6s0.3-0.5-0.2-0.6s-0.4,1.1-0.7,0.9c-0.3-0.1-0.6-0.1-0.9-0.1l1.4-1.4c0.2,0.1,0.3,0.1,0.5,0.1
					C65.8,29.7,66.3,30.3,66.7,30.9 M65.1,51.2c0.6,0.1,1.3,0.2,1.9,0.4c0.4,0.2,0.7,0.6,1,0.1c0.6-0.9,1-1.9,1.2-3
					c0.2-1.5-0.1-2-0.3-2s-0.6,0.4-1,0.4c-0.2,0-0.2,0.4-0.2,0.7s-0.4,0.6-0.5,0.4s-0.3-0.1-0.2,0.1s-0.8,0.1-1.2-0.1
					c-0.6-0.3,0.7-0.3,1.3-0.8c0.5-0.4,1-0.9,1.5-1.4c0.3-0.5,0.3-1.1,0.8-1.5s1.3-0.3,1.4-0.9s0.2-0.5,0.5-0.4s3.1-0.1,3.1-1
					c0-0.4-0.6-0.9-1.2-1c-0.4,0-0.5-0.8-0.7-1.2s-0.4-0.8-0.7-1.2H76c-0.2,5.1-2.2,10-5.7,13.8l-0.1-0.1v-0.4
					c0.1-0.8-0.5-2.1-0.7-1.9s0,0.2-0.6,1.1c-0.2,0.3-0.5,0.8-0.9,0.8s-0.4-0.2-1-0.1c-0.5,0.1-1.1,0.1-1.6,0
					c-0.9-0.3-1.8-0.7-2.7-1.3c0.1-0.1,0.4,0.1,0.4-0.2S64.7,51.1,65.1,51.2 M80.8,63.3l-4.1-4.1c5.2-5.5,8.2-12.7,8.4-20.2H91
					C90.8,48.1,87.2,56.7,80.8,63.3 M91,37.3h-5.9c-0.1-4.3-1.1-8.5-3-12.4l0.1-0.1c0.4-0.4-1.9-3.4-2.3-3.7s-0.8-0.8-1.3-1.3
					c-0.8-0.8-1.6-1.7-2.2-2.6l4.3-4.3C87.2,19.5,90.8,28.2,91,37.3 M55.4,1.7c9.1,0.2,17.8,3.8,24.4,10.1l-4,4
					c-0.2-0.1-0.4-0.2-0.3-0.4c0.2-0.3-0.3-0.3-0.4-1.1c-0.2-0.8-0.8-1.5-1.5-1.9c-0.5-0.3-0.8-0.7-1.3-0.9s-1.5-0.8-2-0.6
					c-0.3,0.1-0.7,0.2-1,0.2c-4.3-2.3-9-3.5-13.8-3.6L55.4,1.7z M55.4,9.2c4.3,0.1,8.4,1.2,12.3,3.1c0.1,0.6,0.4,1.3,0.8,1.8
					c0.2,0.5,0.5,0.9,0.8,1.4c0.3,0.3,0.1,0.9,0.2,1.4c0,0.2,0.2,0.4,0.3,0.6c0,0.3,0,0.5,0,0.8c0,0.1,0.4,0.1,0.7-0.1
					s0.5-0.6,0.9-0.5s0.9,0.9,1.2,1.4L70.7,21c-0.2-0.4-0.4-0.9-0.3-0.9s0.3,0.1,0.4,0.1c0.4,0-0.3-0.3-0.3-0.4
					c-0.3-0.3-0.3-0.7-0.7-1s-1-0.1-1.2-0.5c-0.4-0.7-0.9-1.3-1.6-1.8c-0.1,0,0.8,1.1,0.5,1.3s-1.4-0.7-1.5-0.5s1.2,0.7,1.6,1.1
					c0.2,0.2,0.6,0.8,1,1.3c-3.8-2.9-8.4-4.5-13.2-4.7L55.4,9.2z M55.4,16.6c5.1,0.2,10,2.2,13.8,5.7l-4.1,4.1
					c-2.7-2.4-6.1-3.8-9.7-4L55.4,16.6z M55.4,24.1c3.2,0.2,6.2,1.4,8.5,3.5l-0.2,0.2l-0.2-0.1c-0.5-0.2-1.5,0.8-1.3,0.9
					s0.6-0.4,0.8-0.3h0.1l-1.7,1.8c-0.5,0.2-1,0.6-1,0.9c0,0,0,0,0,0.1l-0.6,0.6l-0.3-0.3c-0.5-0.4-1-0.7-1.6-0.9
					c0.3-0.2,0.4-0.5,0.5-0.9c0-0.6-0.2-0.4-0.5-0.1s-0.6,0.4-0.8,0.7c-0.5-0.2-1.1-0.3-1.6-0.3v-5.8H55.4z M54.7,31.5
					c0.1,0.2,0,0.4-0.1,0.5l0,0c-0.2,0.2-0.8-0.5-0.9,0.1c-0.2,0.6,0.4,0.3,0.4,0.4c0.3,0.4,0.7,0.6,1.2,0.7c0.4,0,1,0,1,0.4
					c0,0.2,0.5,0.2,0.6,0.4c0,0.3,0.3,0.8,0.5,0.7s0.5,0.1,0.6,0.3s0,0.3-0.1,0.5c-0.3,0.3,0.3,0.2,0.4,0.8s-0.5,0.2-0.6,0.6
					c-0.2,0.3-0.4,0.5-0.6,0.8c-0.1,0.1,0.1,0.3,0.2,0.2s0.3-0.4,0.6-0.4s0.6,1.1,0.9,1.2s0.2,0.5,0.3,0.6s-0.5,0-0.4,0.2
					s0.7,0.3,0.7,0.6c-0.1,0.3-0.3,0.6-0.7,0.6c-0.3,0-0.8-0.7-0.8-0.5s0.2,0.8,0.5,0.8s1-0.3,0.7,0.1s-0.2,1-0.4,1s-0.3,0-0.1,0.3
					c0.1,0.3,0,0.6-0.2,0.9c-0.2,0.2-0.7,0-0.7-0.1s0.6-0.1,0.6-0.4s-0.3-0.4-0.9-0.2c-0.3,0.1-0.4-0.1-0.6-0.1S56,43.2,56,43.3
					c0,0.1,0,0.3,0,0.5c0,0.4-0.1,0.7-0.3,1c-0.4,0.1-0.7,0.1-1.1,0.1c-1.6,0-3.2-0.7-4.4-1.7c0.2-0.1,0.5-0.2,0.8-0.2
					c0.3,0.1,0.4-0.1,0.6-0.2s0.7,0.2,1,0s1-1.5,0.9-1.8s0.7-0.8,0.6-0.9s-0.2,0.1-0.2,0s0.2-0.1,0-0.5s-0.5-0.2-0.7-0.2
					c-0.3-0.2-0.8-0.3-0.9-0.2s-0.4-0.2-0.5-0.1c-0.1,0-0.3,0.1-0.3,0.3c-0.1,0.2,0.1,0.4,0.1,0.6c-0.1,0.4-0.7,0.7-0.7,1
					s-0.3,0.1-0.4,0.2s0,0.3-0.2,0.3s-0.5,0.5-0.7,0.9c-0.3-0.4-0.6-0.9-0.9-1.3c0.2-0.1,0.4-0.2,0.5-0.1c0.3,0.2,1.5-1.9,1.3-2.5
					s-0.5-0.2-0.8-0.1s-0.3-0.2-0.2-0.3s1.4-0.1,0.7-0.5c-0.3-0.2-1.1-0.2-1-0.5s0.5,0,0.6,0c0.5,0.2,0.8-0.8,1.1-0.8
					c0.5,0,0.3-1-0.2-0.7s-0.7,0.2-0.9,0.5s-0.7,0.7-0.7,0.3c0-0.2,1.1-0.8,1.3-1.1c0.2-0.2,0.4-0.5,0.5-0.8s1.5-0.5,1.8-0.7
					c0.2-0.2,0.4-0.5,0.4-0.8s-0.4-0.2-0.5-0.4s0.5,0,0.5-0.3s-0.5,0-0.7-0.2c0-0.1,0-0.1,0.1-0.2C53.4,31.6,54,31.5,54.7,31.5h0.2
					 M53.8,1.7v5.8c-7.5,0.2-14.7,3.2-20.2,8.4l-4.1-4.1C36,5.5,44.7,1.9,53.8,1.7 M28.2,13l4.1,4.1c-5.2,5.5-8.2,12.7-8.4,20.2
					h-5.8C18.4,28.2,22,19.5,28.2,13"/>
			</g>
		</g>
	</g>
</g>
</svg>
